<?xml version="1.0" encoding="utf-8"?>
<!-- Generator: Adobe Illustrator 15.0.0, SVG Export Plug-In . SVG Version: 6.00 Build 0)  -->
<!DOCTYPE svg PUBLIC "-//W3C//DTD SVG 1.1//EN" "http://www.w3.org/Graphics/SVG/1.1/DTD/svg11.dtd">
<svg version="1.1" id="Layer_1" xmlns="http://www.w3.org/2000/svg" xmlns:xlink="http://www.w3.org/1999/xlink" x="0px" y="0px"
	 width="200px" height="23.75px" viewBox="0 0 200 23.75" enable-background="new 0 0 200 23.75" xml:space="preserve">
<g>
	<path d="M9.293,2.306c6.022,0,10.028,3.891,10.028,9.8c0,5.852-4.005,9.8-10.028,9.8h-6.59c-0.198,0-0.397-0.199-0.397-0.426V2.732
		c0-0.227,0.199-0.426,0.397-0.426H9.293z M9.635,16.793c2.187,0,3.664-1.874,3.664-4.687c0-2.812-1.477-4.687-3.664-4.687H8.157
		v9.373H9.635z"/>
	<path d="M26.343,2.306c0.255,0,0.426,0.199,0.426,0.426v18.777c0,0.198-0.171,0.397-0.426,0.397h-5.028
		c-0.199,0-0.397-0.199-0.397-0.397V2.732c0-0.227,0.199-0.426,0.397-0.426H26.343z"/>
	<path d="M45.547,9.891c0.227,0,0.426,0.199,0.426,0.398v9.033c0,0.256-0.142,0.511-0.341,0.682
		c-1.705,1.449-4.318,2.301-7.045,2.301c-6.136,0-10.226-4.091-10.226-10.227c0-6.136,4.09-10.227,10.226-10.227
		c2.103,0,4.318,0.625,5.965,1.648c0.227,0.114,0.313,0.34,0.255,0.511l-1.42,4.176c-0.085,0.199-0.284,0.284-0.54,0.227
		c-1.165-0.625-2.67-0.993-4.09-0.993c-2.613,0-4.375,1.875-4.375,4.658c0,2.841,1.761,4.715,4.375,4.715
		c1.051,0,1.761-0.198,2.074-0.539v-1.647h-2.614c-0.255,0-0.426-0.114-0.454-0.313l-0.37-3.92
		c-0.028-0.284,0.142-0.483,0.455-0.483H45.547z M41.002,15.828v0.113V15.828z"/>
	<path d="M53.279,2.306c0.256,0,0.426,0.199,0.426,0.426v18.777c0,0.198-0.17,0.397-0.426,0.397h-5.028
		c-0.199,0-0.397-0.199-0.397-0.397V2.732c0-0.227,0.198-0.426,0.397-0.426H53.279z"/>
	<path d="M69.273,2.306c0.256,0,0.426,0.199,0.398,0.398l-0.426,4.318C69.217,7.249,68.99,7.42,68.791,7.42h-3.665v14.089
		c0,0.198-0.17,0.397-0.397,0.397h-5.028c-0.228,0-0.426-0.199-0.426-0.397V7.42h-4.147c-0.199,0-0.398-0.171-0.398-0.398v-4.29
		c0-0.227,0.199-0.426,0.398-0.426H69.273z"/>
	<path d="M86.576,21.537c0.085,0.17-0.028,0.37-0.255,0.37h-5.625c-0.255,0-0.483-0.142-0.597-0.37l-0.852-2.982h-5.34l-0.852,2.982
		c-0.114,0.228-0.341,0.37-0.597,0.37h-5.625c-0.228,0-0.341-0.199-0.256-0.37l6.42-18.861c0.085-0.17,0.397-0.37,0.682-0.37h5.794
		c0.284,0,0.597,0.199,0.682,0.37L86.576,21.537z M76.577,9.095l-1.534,5.397h3.068L76.577,9.095z"/>
	<path d="M98.512,16.793c0.199,0,0.369,0.171,0.369,0.398l-0.397,4.318c-0.028,0.198-0.228,0.397-0.455,0.397H87.774
		c-0.227,0-0.426-0.199-0.426-0.397V2.732c0-0.227,0.199-0.426,0.426-0.426h5.028c0.227,0,0.426,0.199,0.426,0.426v14.061H98.512z"
		/>
	<path opacity="0.55" d="M108.6,2.306c3.948,0,6.59,2.216,6.59,5.54c0,2.017-0.938,3.494-2.471,3.977
		c1.875,0.426,3.067,2.159,3.067,4.545c0,3.324-2.472,5.54-6.164,5.54h-9.147c-0.228,0-0.398-0.199-0.398-0.397V2.732
		c0-0.198,0.17-0.426,0.398-0.426H108.6z M107.548,10.175c0.938,0,1.563-0.597,1.563-1.477s-0.625-1.477-1.563-1.477h-1.618v2.954
		H107.548z M108.088,16.992c0.994,0,1.676-0.625,1.676-1.534s-0.682-1.534-1.676-1.534h-2.158v3.067H108.088z"/>
	<path opacity="0.55" d="M128.545,16.793c0.197,0,0.368,0.171,0.368,0.398l-0.397,4.318c-0.027,0.198-0.228,0.397-0.455,0.397
		h-10.254c-0.228,0-0.427-0.199-0.427-0.397V2.732c0-0.227,0.199-0.426,0.427-0.426h5.028c0.227,0,0.426,0.199,0.426,0.426v14.061
		H128.545z"/>
	<path opacity="0.55" d="M148.828,21.537c0.086,0.17-0.026,0.37-0.255,0.37h-5.624c-0.256,0-0.482-0.142-0.597-0.37l-0.852-2.982
		h-5.34l-0.854,2.982c-0.113,0.228-0.341,0.37-0.597,0.37h-5.624c-0.227,0-0.342-0.199-0.256-0.37l6.421-18.861
		c0.084-0.17,0.396-0.37,0.68-0.37h5.796c0.283,0,0.597,0.199,0.682,0.37L148.828,21.537z M138.83,9.095l-1.534,5.397h3.067
		L138.83,9.095z"/>
	<path opacity="0.55" d="M158.122,2.306c3.949,0,6.591,2.216,6.591,5.54c0,2.017-0.938,3.494-2.472,3.977
		c1.875,0.426,3.068,2.159,3.068,4.545c0,3.324-2.471,5.54-6.164,5.54h-9.146c-0.228,0-0.398-0.199-0.398-0.397V2.732
		c0-0.198,0.171-0.426,0.398-0.426H158.122z M157.072,10.175c0.938,0,1.563-0.597,1.563-1.477s-0.625-1.477-1.563-1.477h-1.619
		v2.954H157.072z M157.612,16.992c0.993,0,1.676-0.625,1.676-1.534s-0.683-1.534-1.676-1.534h-2.159v3.067H157.612z"/>
	<path opacity="0.55" d="M178.068,16.793c0.198,0,0.369,0.171,0.369,0.398l-0.398,4.318c-0.026,0.198-0.227,0.397-0.453,0.397
		h-10.255c-0.228,0-0.427-0.199-0.427-0.397V2.732c0-0.227,0.199-0.426,0.427-0.426h5.027c0.228,0,0.427,0.199,0.427,0.426v14.061
		H178.068z"/>
	<path opacity="0.55" d="M198.354,21.537c0.085,0.17-0.028,0.37-0.256,0.37h-5.624c-0.256,0-0.483-0.142-0.597-0.37l-0.853-2.982
		h-5.34l-0.853,2.982c-0.113,0.228-0.341,0.37-0.597,0.37h-5.624c-0.228,0-0.342-0.199-0.256-0.37l6.42-18.861
		c0.085-0.17,0.397-0.37,0.681-0.37h5.796c0.284,0,0.597,0.199,0.682,0.37L198.354,21.537z M188.354,9.095l-1.534,5.397h3.067
		L188.354,9.095z"/>
</g>
</svg>
