<svg width="200" height="63" viewBox="0 0 200 63" fill="none" xmlns="http://www.w3.org/2000/svg">
<g clip-path="url(#clip0)">
<path d="M195.749 40.994C197.268 40.994 198.5 39.762 198.5 38.246C198.5 36.729 197.268 35.497 195.749 35.497C194.234 35.497 193.004 36.729 193.004 38.246C193.004 39.761 194.234 40.994 195.749 40.994Z" fill="#0C2F59"/>
<path d="M46.054 34.482C44.037 34.482 42.36 32.807 42.36 30.277V30.222C42.36 27.691 44.038 26.015 46.054 26.015C48.074 26.015 49.778 27.691 49.778 30.222V30.277C49.778 32.834 48.074 34.482 46.054 34.482ZM38.104 35.872C38.104 37.065 39.069 38.031 40.261 38.031C41.454 38.031 42.417 37.065 42.417 35.9V35.872C43.442 37.095 44.862 38.144 47.164 38.144C50.773 38.144 54.091 35.363 54.091 30.278V30.223C54.091 25.135 50.716 22.357 47.164 22.357C44.919 22.357 43.471 23.406 42.417 24.823V19.118C42.417 17.923 41.454 16.959 40.261 16.959C39.07 16.959 38.104 17.923 38.104 19.118V35.872ZM11.121 35.872C11.121 37.065 12.086 38.031 13.277 38.031C14.471 38.031 15.434 37.065 15.434 35.872V29.367C15.434 27.322 16.43 26.272 18.049 26.272C19.671 26.272 20.579 27.322 20.579 29.367V35.872C20.579 37.065 21.546 38.031 22.735 38.031C23.928 38.031 24.892 37.065 24.892 35.872V29.367C24.892 27.322 25.888 26.272 27.507 26.272C29.128 26.272 30.037 27.322 30.037 29.367V35.872C30.037 37.065 31.003 38.031 32.194 38.031C33.386 38.031 34.35 37.065 34.35 35.872V27.948C34.35 24.286 32.421 22.357 29.214 22.357C27.138 22.357 25.547 23.207 24.212 24.77C23.417 23.234 21.915 22.357 19.925 22.357C17.737 22.357 16.429 23.52 15.434 24.798V24.627C15.434 23.434 14.471 22.47 13.277 22.47C12.086 22.47 11.121 23.434 11.121 24.627V35.872V35.872Z" fill="#0C2F59"/>
<path d="M20.836 39.371C20.826 39.549 20.783 39.715 20.783 39.899C20.783 46.051 25.773 51.045 31.927 51.045C38.083 51.045 43.073 46.052 43.073 39.899C43.073 39.715 43.03 39.549 43.019 39.371H38.727C38.742 39.547 38.779 39.715 38.779 39.899C38.779 43.683 35.711 46.75 31.927 46.75C28.143 46.75 25.074 43.683 25.074 39.899C25.074 39.715 25.115 39.547 25.129 39.371H20.836Z" fill="#0C2F59"/>
<path d="M58.433 32.323C58.433 47.148 46.412 59.171 31.585 59.171C16.758 59.171 4.73501 47.149 4.73501 32.323C4.73501 17.495 16.757 5.47498 31.585 5.47498C46.412 5.47598 58.433 17.496 58.433 32.323ZM61.777 32.323C61.777 15.648 48.259 2.13098 31.585 2.13098C14.91 2.13098 1.39301 15.648 1.39301 32.323C1.39301 48.998 14.91 62.515 31.585 62.515C48.26 62.516 61.777 48.998 61.777 32.323Z" fill="#0C2F59"/>
<path d="M169.451 40.992H175.499L179.439 35.393L183.105 40.992H189.226L182.761 32.003L188.223 24.194H182.45L179.578 28.753L176.607 24.194H170.486L176.086 32.003L169.451 40.992ZM155.031 32.591C155.031 30.065 156.584 28.338 159.177 28.338C161.776 28.338 163.329 30.065 163.329 32.591C163.329 35.115 161.775 36.846 159.177 36.846C156.584 36.847 155.031 35.115 155.031 32.591ZM149.846 32.591C149.846 37.951 153.993 41.404 159.178 41.404C164.368 41.404 168.516 37.951 168.516 32.591C168.516 27.231 164.369 23.775 159.178 23.775C153.993 23.775 149.846 27.231 149.846 32.591ZM133.938 32.591C133.938 30.065 135.496 28.338 138.089 28.338C140.682 28.338 142.241 30.065 142.241 32.591C142.241 35.115 140.682 36.846 138.089 36.846C135.496 36.846 133.938 35.115 133.938 32.591ZM129.172 40.992H133.939V38.782H134.009C134.804 39.991 136.809 41.406 139.162 41.406C144.142 41.406 147.421 37.816 147.421 32.731C147.421 28.062 144.521 23.776 139.751 23.776C137.605 23.776 135.6 24.363 134.423 25.988H134.355V14.858H129.172V40.992ZM113.505 30.694C113.645 29.064 114.889 27.506 117.174 27.506C119.04 27.506 120.391 28.96 120.358 30.694H113.505ZM121.116 35.427C120.253 36.601 119.11 37.469 117.415 37.469C115.407 37.469 113.922 36.189 113.505 34.214H125.538V32.591C125.538 27.229 122.497 23.775 117.656 23.775C112.47 23.775 108.322 27.229 108.322 32.591C108.322 37.951 112.47 41.404 117.656 41.404C120.357 41.404 123.085 40.198 124.743 38.091L121.116 35.427ZM99.506 18.9C99.506 20.558 100.856 21.905 102.511 21.905C104.171 21.905 105.518 20.557 105.518 18.9C105.518 17.24 104.171 15.893 102.511 15.893C100.856 15.894 99.506 17.241 99.506 18.9ZM99.924 40.992H105.105V24.194H99.924V40.992ZM69.772 40.992H74.953V32.623C74.953 30.446 75.37 28.338 78.069 28.338C80.457 28.338 80.387 30.86 80.387 32.106V40.992H85.57V32.106C85.57 30.03 86.329 28.338 88.717 28.338C90.412 28.338 91.002 29.65 91.002 31.207V40.992H96.183V31.069C96.183 26.991 94.801 23.776 90.24 23.776C87.751 23.776 86.124 24.641 84.911 26.783C84.014 24.744 82.081 23.776 79.73 23.776C77.205 23.776 75.509 25.159 74.817 26.473H74.748V24.194H69.772V40.992Z" fill="#0C2F59"/>
</g>
<defs>
<clipPath id="clip0">
<rect width="200" height="63" fill="white"/>
</clipPath>
</defs>
</svg>
