<?xml version="1.0" encoding="utf-8"?>
<!-- Generator: Adobe Illustrator 15.0.0, SVG Export Plug-In . SVG Version: 6.00 Build 0)  -->
<!DOCTYPE svg PUBLIC "-//W3C//DTD SVG 1.1//EN" "http://www.w3.org/Graphics/SVG/1.1/DTD/svg11.dtd">
<svg version="1.1" id="Layer_1" xmlns="http://www.w3.org/2000/svg" xmlns:xlink="http://www.w3.org/1999/xlink" x="0px" y="0px"
	 width="320.29px" height="41.343px" viewBox="-16.165 -1.135 320.29 41.343" enable-background="new -16.165 -1.135 320.29 41.343"
	 xml:space="preserve">
<path fill="#97D8E7" d="M270.969,39.398h9.103V15.847l14.871,23.551h8.31V-0.294h-9.103v23.55l-14.924-23.55h-8.257V39.398z
	 M249.004,39.822h2.064c4.975,0,9.948-1.482,12.012-2.277V17.488h-14.076v7.833h5.821v6.246c-0.848,0.158-2.805,0.371-3.757,0.371
	h-2.064c-5.982,0-9.897-4.341-9.897-10.322v-4.127c0-6.615,4.552-10.32,11.167-10.32c3.493,0,8.468,0.583,12.384,2.065h0.423V1.346
	c-3.915-1.429-8.255-2.064-12.383-2.064c-11.379,0-21.116,5.61-21.116,18.206v4.127C229.581,33.418,237.254,39.822,249.004,39.822
	 M213.794,39.398h9.103V-0.294h-9.103V39.398z M190.084,39.822h2.064c8.893,0,15.295-3.336,15.295-12.226
	c0-6.406-3.122-9.95-9.103-11.538l-6.192-1.693c-2.064-0.529-3.758-1.429-3.758-3.705c0-2.91,2.487-3.493,5.398-3.493h1.854
	c2.274,0,7.25,0.635,9.313,1.218h0.426V0.764c-2.276-0.846-7.252-1.481-9.738-1.481h-2.066c-8.043,0-14.657,3.335-14.657,11.378
	c0,6.827,3.703,10.001,8.255,11.167l6.191,1.641c2.381,0.636,4.552,1.641,4.552,4.128c0,3.333-2.486,4.341-5.769,4.341h-2.064
	c-3.545,0-8.467-0.954-10.741-1.642h-0.424v7.674C181.776,38.974,186.962,39.822,190.084,39.822 M156.427,39.398h16.511v-7.832
	h-13.229c-3.282,0-4.129-1.271-4.129-4.552v-3.759h14.871v-7.833H155.58V7.538h16.563v-7.832h-25.666v28.949
	C146.478,35.271,149.812,39.398,156.427,39.398 M116.152,31.566V7.538h5.77c6.245,0,9.526,3.758,9.526,9.95v3.282
	c0,6.614-3.281,10.797-9.526,10.797H116.152z M107.051,39.398h14.871c13.229,0,19.051-7.461,19.051-17.783v-4.974
	c0-9.896-6.19-16.935-19.051-16.935h-14.871V39.398z"/>
<path fill="#381F75" d="M64.05,31.613V7.73h5.733c6.209,0,9.47,3.735,9.47,9.89v3.261c0,6.576-3.261,10.732-9.47,10.732H64.05z
	 M55.002,39.398h14.781c13.152,0,18.939-7.419,18.939-17.676v-4.945c0-9.837-6.156-16.834-18.939-16.834H55.002V39.398z
	 M28.804,31.613v-8.682h5.735c3.314,0,4.945,0.841,4.945,4.157c0,3.471-1.421,4.524-4.945,4.524H28.804z M28.804,15.988V7.73h5.735
	c2.683,0,4.156,1.262,4.156,3.945c0,2.63-1.473,4.313-4.156,4.313H28.804z M19.756,39.398h16.045
	c8.417,0,13.152-3.684,13.152-12.099c0-4.368-2.262-7.419-5.577-8.682c3.524-1.841,4.734-4.681,4.734-7.996
	c0-7.575-4.734-10.679-12.31-10.679H19.756V39.398z M-4.862,39.398h9.048V7.73h10.68v-7.787h-30.407V7.73h10.679V39.398z"/>
</svg>
