<?xml version="1.0" encoding="utf-8"?>
<!-- Generator: Adobe Illustrator 15.0.0, SVG Export Plug-In . SVG Version: 6.00 Build 0)  -->
<!DOCTYPE svg PUBLIC "-//W3C//DTD SVG 1.1//EN" "http://www.w3.org/Graphics/SVG/1.1/DTD/svg11.dtd">
<svg version="1.1" id="Layer_1" xmlns="http://www.w3.org/2000/svg" xmlns:xlink="http://www.w3.org/1999/xlink" x="0px" y="0px"
	 width="320.29px" height="41.343px" viewBox="0 0 320.29 41.343" enable-background="new 0 0 320.29 41.343" xml:space="preserve">
<path fill="#97D8E7" d="M286.51,40.919h9.103V17.369l14.871,23.551h8.31V1.228h-9.103v23.549L294.767,1.228h-8.257V40.919z
	 M264.545,41.343h2.063c4.976,0,9.948-1.482,12.013-2.277V19.009h-14.076v7.833h5.82v6.246c-0.848,0.158-2.805,0.371-3.757,0.371
	h-2.063c-5.982,0-9.897-4.341-9.897-10.321v-4.127c0-6.615,4.552-10.32,11.167-10.32c3.493,0,8.469,0.583,12.385,2.065h0.422V2.868
	c-3.914-1.429-8.254-2.064-12.383-2.064c-11.379,0-21.115,5.61-21.115,18.206v4.127C245.122,34.939,252.795,41.343,264.545,41.343
	 M229.334,40.919h9.104V1.228h-9.104V40.919z M205.625,41.343h2.063c8.894,0,15.295-3.336,15.295-12.226
	c0-6.406-3.122-9.95-9.103-11.538l-6.192-1.693c-2.063-0.529-3.758-1.429-3.758-3.705c0-2.91,2.487-3.493,5.397-3.493h1.854
	c2.274,0,7.25,0.635,9.313,1.218h0.426V2.286c-2.276-0.846-7.252-1.481-9.738-1.481h-2.066c-8.043,0-14.656,3.335-14.656,11.378
	c0,6.827,3.703,10,8.254,11.167l6.191,1.641c2.381,0.637,4.553,1.642,4.553,4.129c0,3.333-2.486,4.341-5.77,4.341h-2.064
	c-3.545,0-8.467-0.954-10.74-1.642h-0.424v7.674C197.317,40.496,202.502,41.343,205.625,41.343 M171.967,40.919h16.512v-7.832
	H175.25c-3.283,0-4.129-1.271-4.129-4.552v-3.759h14.871v-7.833h-14.871V9.06h16.563V1.228h-25.666v28.949
	C162.019,36.792,165.353,40.919,171.967,40.919 M131.693,33.087V9.06h5.77c6.245,0,9.526,3.758,9.526,9.95v3.282
	c0,6.614-3.281,10.797-9.526,10.797L131.693,33.087L131.693,33.087z M122.592,40.919h14.871c13.229,0,19.051-7.461,19.051-17.783
	v-4.974c0-9.896-6.19-16.935-19.051-16.935h-14.871V40.919z"/>
<path fill="#FFFFFF" d="M79.591,33.134V9.251h5.733c6.209,0,9.47,3.735,9.47,9.89v3.26c0,6.576-3.261,10.732-9.47,10.732H79.591z
	 M70.543,40.919h14.781c13.152,0,18.939-7.419,18.939-17.676v-4.945c0-9.837-6.156-16.834-18.939-16.834H70.543V40.919z
	 M44.345,33.134v-8.682h5.735c3.314,0,4.945,0.841,4.945,4.156c0,3.472-1.421,4.524-4.945,4.524L44.345,33.134L44.345,33.134z
	 M44.345,17.509V9.251h5.735c2.683,0,4.156,1.262,4.156,3.945c0,2.63-1.473,4.313-4.156,4.313H44.345z M35.297,40.919h16.045
	c8.417,0,13.152-3.684,13.152-12.1c0-4.367-2.262-7.418-5.577-8.681c3.524-1.841,4.734-4.681,4.734-7.996
	c0-7.575-4.734-10.679-12.31-10.679H35.297V40.919z M10.679,40.919h9.048V9.251h10.68V1.464H0v7.787h10.679V40.919z"/>
</svg>
