<svg width="1554" height="354" viewBox="0 0 1554 354" fill="none" xmlns="http://www.w3.org/2000/svg">
<g clip-path="url(#clip0)">
<rect width="1554" height="354" fill="white"/>
<path d="M169.105 89.0098H167.246V86.002H169.707L170.527 81.9688H167.246V78.9473H171.143L172.223 73.6152H175.285L174.205 78.9473H177.227L178.279 73.6152H181.451L180.357 78.9473H182.244V81.9688H179.742L178.922 86.002H182.244V89.0098H178.307L177.227 94.3418H174.178L175.23 89.0098H172.195L171.115 94.3418H168.025L169.105 89.0098ZM173.604 81.9688L172.797 86.002H175.832L176.625 81.9688H173.604ZM183.643 88.6816L187.362 88.2305C187.48 89.1784 187.799 89.903 188.319 90.4043C188.838 90.9056 189.467 91.1562 190.206 91.1562C190.999 91.1562 191.664 90.8555 192.202 90.2539C192.749 89.6523 193.022 88.8411 193.022 87.8203C193.022 86.8542 192.762 86.0885 192.243 85.5234C191.723 84.9583 191.09 84.6758 190.342 84.6758C189.85 84.6758 189.262 84.7715 188.579 84.9629L189.002 81.832C190.042 81.8594 190.834 81.6361 191.381 81.1621C191.928 80.679 192.202 80.041 192.202 79.248C192.202 78.5736 192.001 78.0358 191.6 77.6348C191.199 77.2337 190.666 77.0332 190 77.0332C189.344 77.0332 188.784 77.2611 188.319 77.7168C187.854 78.1725 187.571 78.8379 187.471 79.7129L183.93 79.1113C184.176 77.8991 184.545 76.9329 185.038 76.2129C185.539 75.4837 186.232 74.9141 187.116 74.5039C188.009 74.0846 189.007 73.875 190.11 73.875C191.997 73.875 193.51 74.4766 194.649 75.6797C195.588 76.6641 196.057 77.776 196.057 79.0156C196.057 80.7747 195.096 82.1784 193.172 83.2266C194.321 83.4727 195.237 84.0241 195.92 84.8809C196.613 85.7376 196.959 86.7721 196.959 87.9844C196.959 89.7435 196.317 91.2428 195.032 92.4824C193.747 93.722 192.147 94.3418 190.233 94.3418C188.419 94.3418 186.915 93.8223 185.721 92.7832C184.527 91.735 183.834 90.3678 183.643 88.6816ZM218.292 94H213.89L212.14 89.4473H204.128L202.474 94H198.181L205.987 73.957H210.267L218.292 94ZM210.841 86.0703L208.079 78.6328L205.372 86.0703H210.841ZM219.664 88.8457L223.492 88.4492C223.601 89.3151 223.925 90.0033 224.462 90.5137C225 91.015 225.62 91.2656 226.322 91.2656C227.124 91.2656 227.803 90.9421 228.359 90.2949C228.915 89.6387 229.193 88.6543 229.193 87.3418C229.193 86.1113 228.915 85.1908 228.359 84.5801C227.812 83.9603 227.097 83.6504 226.212 83.6504C225.11 83.6504 224.121 84.138 223.246 85.1133L220.128 84.6621L222.097 74.2305H232.255V77.8262H225.009L224.408 81.2305C225.265 80.8021 226.14 80.5879 227.033 80.5879C228.737 80.5879 230.182 81.2077 231.367 82.4473C232.552 83.6868 233.144 85.2956 233.144 87.2734C233.144 88.9232 232.666 90.3952 231.709 91.6895C230.405 93.4577 228.596 94.3418 226.281 94.3418C224.431 94.3418 222.922 93.8451 221.755 92.8516C220.589 91.8581 219.891 90.5228 219.664 88.8457ZM236.074 94V73.957H249.814V77.3477H240.121V82.0918H248.488V85.4824H240.121V94H236.074ZM255.616 83.1855C254.622 82.7663 253.898 82.1921 253.442 81.4629C252.995 80.7246 252.772 79.918 252.772 79.043C252.772 77.5482 253.292 76.3132 254.331 75.3379C255.379 74.3626 256.864 73.875 258.788 73.875C260.693 73.875 262.169 74.3626 263.217 75.3379C264.275 76.3132 264.803 77.5482 264.803 79.043C264.803 79.9727 264.562 80.8021 264.079 81.5312C263.596 82.2513 262.917 82.8027 262.042 83.1855C263.154 83.6322 263.997 84.2839 264.571 85.1406C265.154 85.9974 265.446 86.9863 265.446 88.1074C265.446 89.9577 264.853 91.4616 263.668 92.6191C262.493 93.7767 260.925 94.3555 258.965 94.3555C257.142 94.3555 255.625 93.877 254.413 92.9199C252.982 91.7897 252.266 90.2402 252.266 88.2715C252.266 87.1868 252.535 86.1934 253.073 85.291C253.611 84.3796 254.458 83.6777 255.616 83.1855ZM256.409 79.3164C256.409 80.082 256.623 80.679 257.051 81.1074C257.489 81.5358 258.068 81.75 258.788 81.75C259.517 81.75 260.1 81.5358 260.538 81.1074C260.975 80.6699 261.194 80.0684 261.194 79.3027C261.194 78.5827 260.975 78.0085 260.538 77.5801C260.109 77.1426 259.54 76.9238 258.829 76.9238C258.09 76.9238 257.502 77.1426 257.065 77.5801C256.627 78.0176 256.409 78.5964 256.409 79.3164ZM256.053 87.9023C256.053 88.9596 256.322 89.7845 256.86 90.377C257.407 90.9694 258.086 91.2656 258.897 91.2656C259.69 91.2656 260.346 90.9831 260.866 90.418C261.385 89.8438 261.645 89.0189 261.645 87.9434C261.645 87.0046 261.381 86.2526 260.852 85.6875C260.323 85.1133 259.654 84.8262 258.842 84.8262C257.904 84.8262 257.202 85.1497 256.737 85.7969C256.281 86.444 256.053 87.1458 256.053 87.9023ZM275.444 94V89.9668H267.241V86.6035L275.937 73.875H279.163V86.5898H281.651V89.9668H279.163V94H275.444ZM275.444 86.5898V79.7402L270.837 86.5898H275.444Z" fill="#1B314D"/>
<g filter="url(#filter0_d)">
<path fill-rule="evenodd" clip-rule="evenodd" d="M71 9C36.2061 9 8 37.2061 8 72V72C8 106.794 36.2061 135 71 135V135C105.794 135 134 106.794 134 72V72C134 37.2061 105.794 9 71 9V9Z" fill="white"/>
</g>
<path fill-rule="evenodd" clip-rule="evenodd" d="M71 9C36.2061 9 8 37.2061 8 72V72C8 106.794 36.2061 135 71 135V135C105.794 135 134 106.794 134 72V72C134 37.2061 105.794 9 71 9V9Z" fill="#3A5F84"/>
<path d="M184.164 43.2324C183.9 45.4883 183.065 47.2314 181.659 48.4619C180.263 49.6826 178.402 50.293 176.078 50.293C173.559 50.293 171.537 49.3896 170.014 47.583C168.5 45.7764 167.743 43.3594 167.743 40.332V38.2812C167.743 36.2988 168.095 34.5557 168.798 33.0518C169.511 31.5479 170.517 30.3955 171.815 29.5947C173.114 28.7842 174.618 28.3789 176.327 28.3789C178.593 28.3789 180.409 29.0137 181.776 30.2832C183.144 31.543 183.939 33.291 184.164 35.5273H181.337C181.093 33.8281 180.561 32.5977 179.74 31.8359C178.93 31.0742 177.792 30.6934 176.327 30.6934C174.53 30.6934 173.119 31.3574 172.094 32.6855C171.078 34.0137 170.57 35.9033 170.57 38.3545V40.4199C170.57 42.7344 171.054 44.5752 172.021 45.9424C172.987 47.3096 174.34 47.9932 176.078 47.9932C177.641 47.9932 178.837 47.6416 179.667 46.9385C180.507 46.2256 181.063 44.9902 181.337 43.2324H184.164ZM190.306 36.0693C191.507 34.5947 193.07 33.8574 194.994 33.8574C198.343 33.8574 200.033 35.7471 200.062 39.5264V50H197.352V39.5117C197.342 38.3691 197.079 37.5244 196.561 36.9775C196.053 36.4307 195.257 36.1572 194.173 36.1572C193.294 36.1572 192.523 36.3916 191.859 36.8604C191.195 37.3291 190.677 37.9443 190.306 38.7061V50H187.596V27.5H190.306V36.0693ZM213.909 50C213.753 49.6875 213.626 49.1309 213.528 48.3301C212.269 49.6387 210.765 50.293 209.017 50.293C207.454 50.293 206.17 49.8535 205.164 48.9746C204.168 48.0859 203.67 46.9629 203.67 45.6055C203.67 43.9551 204.295 42.6758 205.545 41.7676C206.805 40.8496 208.572 40.3906 210.848 40.3906H213.484V39.1455C213.484 38.1982 213.201 37.4463 212.635 36.8896C212.068 36.3232 211.233 36.04 210.13 36.04C209.163 36.04 208.353 36.2842 207.698 36.7725C207.044 37.2607 206.717 37.8516 206.717 38.5449H203.992C203.992 37.7539 204.271 36.9922 204.827 36.2598C205.394 35.5176 206.155 34.9316 207.112 34.502C208.079 34.0723 209.139 33.8574 210.291 33.8574C212.117 33.8574 213.548 34.3164 214.583 35.2344C215.618 36.1426 216.155 37.3975 216.194 38.999V46.2939C216.194 47.749 216.38 48.9062 216.751 49.7656V50H213.909ZM209.412 47.9346C210.262 47.9346 211.067 47.7148 211.829 47.2754C212.591 46.8359 213.143 46.2646 213.484 45.5615V42.3096H211.36C208.04 42.3096 206.38 43.2812 206.38 45.2246C206.38 46.0742 206.663 46.7383 207.23 47.2168C207.796 47.6953 208.523 47.9346 209.412 47.9346ZM222.996 34.1504L223.069 35.9082C224.231 34.541 225.798 33.8574 227.771 33.8574C229.988 33.8574 231.497 34.707 232.297 36.4062C232.825 35.6445 233.508 35.0293 234.348 34.5605C235.198 34.0918 236.199 33.8574 237.351 33.8574C240.828 33.8574 242.595 35.6982 242.654 39.3799V50H239.944V39.541C239.944 38.4082 239.685 37.5635 239.167 37.0068C238.65 36.4404 237.781 36.1572 236.56 36.1572C235.554 36.1572 234.719 36.46 234.055 37.0654C233.391 37.6611 233.005 38.4668 232.898 39.4824V50H230.173V39.6143C230.173 37.3096 229.045 36.1572 226.79 36.1572C225.012 36.1572 223.796 36.9141 223.142 38.4277V50H220.432V34.1504H222.996ZM260.178 42.251C260.178 44.6729 259.621 46.6211 258.508 48.0957C257.395 49.5605 255.9 50.293 254.025 50.293C252.023 50.293 250.476 49.585 249.382 48.1689L249.25 50H246.76V27.5H249.47V35.8936C250.563 34.5361 252.072 33.8574 253.996 33.8574C255.92 33.8574 257.429 34.585 258.522 36.04C259.626 37.4951 260.178 39.4873 260.178 42.0166V42.251ZM257.468 41.9434C257.468 40.0977 257.111 38.6719 256.398 37.666C255.686 36.6602 254.66 36.1572 253.322 36.1572C251.535 36.1572 250.251 36.9873 249.47 38.6475V45.5029C250.3 47.1631 251.594 47.9932 253.352 47.9932C254.65 47.9932 255.661 47.4902 256.384 46.4844C257.106 45.4785 257.468 43.9648 257.468 41.9434ZM271.271 36.582C270.861 36.5137 270.417 36.4795 269.938 36.4795C268.161 36.4795 266.955 37.2363 266.32 38.75V50H263.61V34.1504H266.247L266.291 35.9814C267.179 34.5654 268.439 33.8574 270.07 33.8574C270.597 33.8574 270.998 33.9258 271.271 34.0625V36.582ZM282.98 50C282.823 49.6875 282.696 49.1309 282.599 48.3301C281.339 49.6387 279.835 50.293 278.087 50.293C276.524 50.293 275.24 49.8535 274.234 48.9746C273.238 48.0859 272.74 46.9629 272.74 45.6055C272.74 43.9551 273.365 42.6758 274.615 41.7676C275.875 40.8496 277.643 40.3906 279.918 40.3906H282.555V39.1455C282.555 38.1982 282.272 37.4463 281.705 36.8896C281.139 36.3232 280.304 36.04 279.2 36.04C278.233 36.04 277.423 36.2842 276.769 36.7725C276.114 37.2607 275.787 37.8516 275.787 38.5449H273.063C273.063 37.7539 273.341 36.9922 273.897 36.2598C274.464 35.5176 275.226 34.9316 276.183 34.502C277.149 34.0723 278.209 33.8574 279.361 33.8574C281.188 33.8574 282.618 34.3164 283.653 35.2344C284.689 36.1426 285.226 37.3975 285.265 38.999V46.2939C285.265 47.749 285.45 48.9062 285.821 49.7656V50H282.98ZM278.482 47.9346C279.332 47.9346 280.138 47.7148 280.899 47.2754C281.661 46.8359 282.213 46.2646 282.555 45.5615V42.3096H280.431C277.11 42.3096 275.45 43.2812 275.45 45.2246C275.45 46.0742 275.733 46.7383 276.3 47.2168C276.866 47.6953 277.594 47.9346 278.482 47.9346ZM294.468 46.0303L298.16 34.1504H301.06L294.688 52.4463C293.702 55.083 292.134 56.4014 289.986 56.4014L289.473 56.3574L288.462 56.167V53.9697L289.195 54.0283C290.113 54.0283 290.826 53.8428 291.334 53.4717C291.851 53.1006 292.276 52.4219 292.608 51.4355L293.209 49.8242L287.554 34.1504H290.513L294.468 46.0303Z" fill="#1B314D"/>
<path d="M589.119 89.3945H586.48L585.496 95H582.994L583.979 89.3945H580.875V87.043H584.389L585.072 83.1602H581.9V80.7812H585.496L586.494 75.0938H588.982L587.984 80.7812H590.637L591.635 75.0938H594.137L593.139 80.7812H596.133V83.1602H592.715L592.031 87.043H595.094V89.3945H591.621L590.637 95H588.135L589.119 89.3945ZM586.891 87.043H589.529L590.213 83.1602H587.561L586.891 87.043ZM607.635 95H603.684V79.7695L598.967 81.2324V78.0195L607.211 75.0664H607.635V95ZM614.544 95V75.0938H621.517C623.932 75.0938 625.764 75.5586 627.013 76.4883C628.261 77.4089 628.886 78.7624 628.886 80.5488C628.886 81.5241 628.635 82.3854 628.134 83.1328C627.632 83.8711 626.935 84.4134 626.042 84.7598C627.063 85.015 627.865 85.5299 628.448 86.3047C629.041 87.0794 629.337 88.0273 629.337 89.1484C629.337 91.0625 628.726 92.5117 627.505 93.4961C626.284 94.4805 624.543 94.9818 622.282 95H614.544ZM618.646 86.332V91.7051H622.159C623.125 91.7051 623.877 91.4772 624.415 91.0215C624.962 90.5566 625.235 89.9186 625.235 89.1074C625.235 87.2845 624.292 86.3594 622.405 86.332H618.646ZM618.646 83.4336H621.681C623.75 83.3971 624.784 82.5723 624.784 80.959C624.784 80.0566 624.52 79.4095 623.991 79.0176C623.472 78.6165 622.647 78.416 621.517 78.416H618.646V83.4336ZM636.027 83.2969H638.132C639.135 83.2969 639.878 83.0462 640.361 82.5449C640.844 82.0436 641.085 81.3783 641.085 80.5488C641.085 79.7467 640.844 79.1224 640.361 78.6758C639.887 78.2292 639.231 78.0059 638.392 78.0059C637.636 78.0059 637.002 78.2155 636.492 78.6348C635.981 79.0449 635.726 79.5827 635.726 80.248H631.775C631.775 79.209 632.053 78.2793 632.609 77.459C633.174 76.6296 633.958 75.9824 634.96 75.5176C635.972 75.0527 637.084 74.8203 638.296 74.8203C640.402 74.8203 642.052 75.3262 643.246 76.3379C644.44 77.3405 645.037 78.7259 645.037 80.4941C645.037 81.4056 644.759 82.2441 644.203 83.0098C643.647 83.7754 642.917 84.3633 642.015 84.7734C643.136 85.1745 643.97 85.776 644.517 86.5781C645.073 87.3802 645.351 88.3281 645.351 89.4219C645.351 91.1901 644.704 92.6074 643.41 93.6738C642.125 94.7402 640.42 95.2734 638.296 95.2734C636.309 95.2734 634.682 94.7493 633.416 93.7012C632.158 92.653 631.529 91.2676 631.529 89.5449H635.48C635.48 90.2923 635.758 90.903 636.314 91.377C636.879 91.8509 637.572 92.0879 638.392 92.0879C639.331 92.0879 640.065 91.8418 640.593 91.3496C641.131 90.8483 641.4 90.1875 641.4 89.3672C641.4 87.3802 640.306 86.3867 638.119 86.3867H636.027V83.2969ZM657.688 95H653.736V79.7695L649.02 81.2324V78.0195L657.264 75.0664H657.688V95ZM675.862 87.5078H678.118V90.6934H675.862V95H671.911V90.6934H663.749L663.571 88.2051L671.87 75.0938H675.862V87.5078ZM667.508 87.5078H671.911V80.4805L671.651 80.9316L667.508 87.5078ZM680.679 95V75.0938H686.804C688.554 75.0938 690.117 75.4902 691.493 76.2832C692.879 77.0671 693.959 78.1882 694.733 79.6465C695.508 81.0957 695.896 82.7454 695.896 84.5957V85.5117C695.896 87.362 695.513 89.0072 694.747 90.4473C693.991 91.8874 692.92 93.0039 691.534 93.7969C690.149 94.5898 688.586 94.9909 686.845 95H680.679ZM684.78 78.416V91.7051H686.763C688.367 91.7051 689.593 91.181 690.44 90.1328C691.288 89.0846 691.721 87.5853 691.739 85.6348V84.582C691.739 82.5586 691.32 81.0273 690.481 79.9883C689.643 78.9401 688.417 78.416 686.804 78.416H684.78Z" fill="#1B314D"/>
<g filter="url(#filter1_d)">
<path fill-rule="evenodd" clip-rule="evenodd" d="M473 10C438.206 10 410 38.2061 410 73V73C410 107.794 438.206 136 473 136V136C507.794 136 536 107.794 536 73V73C536 38.2061 507.794 10 473 10V10Z" fill="white"/>
</g>
<path fill-rule="evenodd" clip-rule="evenodd" d="M473 10C438.206 10 410 38.2061 410 73V73C410 107.794 438.206 136 473 136V136C507.794 136 536 107.794 536 73V73C536 38.2061 507.794 10 473 10V10Z" fill="#1B314D"/>
<path d="M598.867 50H596.04L585.303 33.5645V50H582.476V28.6719H585.303L596.069 45.1807V28.6719H598.867V50ZM606.386 50H603.676V34.1504H606.386V50ZM603.457 29.9463C603.457 29.5068 603.588 29.1357 603.852 28.833C604.125 28.5303 604.526 28.3789 605.053 28.3789C605.581 28.3789 605.981 28.5303 606.254 28.833C606.528 29.1357 606.665 29.5068 606.665 29.9463C606.665 30.3857 606.528 30.752 606.254 31.0449C605.981 31.3379 605.581 31.4844 605.053 31.4844C604.526 31.4844 604.125 31.3379 603.852 31.0449C603.588 30.752 603.457 30.3857 603.457 29.9463ZM613.686 50H610.976V27.5H613.686V50ZM624.618 50.293C622.469 50.293 620.721 49.5898 619.374 48.1836C618.026 46.7676 617.352 44.8779 617.352 42.5146V42.0166C617.352 40.4443 617.65 39.043 618.246 37.8125C618.851 36.5723 619.691 35.6055 620.765 34.9121C621.849 34.209 623.021 33.8574 624.281 33.8574C626.341 33.8574 627.943 34.5361 629.085 35.8936C630.228 37.251 630.799 39.1943 630.799 41.7236V42.8516H620.062C620.101 44.4141 620.555 45.6787 621.424 46.6455C622.303 47.6025 623.417 48.0811 624.764 48.0811C625.721 48.0811 626.532 47.8857 627.196 47.4951C627.86 47.1045 628.441 46.5869 628.939 45.9424L630.594 47.2314C629.266 49.2725 627.274 50.293 624.618 50.293ZM624.281 36.084C623.187 36.084 622.269 36.4844 621.527 37.2852C620.785 38.0762 620.326 39.1895 620.15 40.625H628.089V40.4199C628.011 39.043 627.64 37.9785 626.976 37.2266C626.312 36.4648 625.414 36.084 624.281 36.084ZM641.824 50V28.6719H648.796C651.111 28.6719 652.849 29.1504 654.011 30.1074C655.183 31.0645 655.769 32.4805 655.769 34.3555C655.769 35.3516 655.486 36.2354 654.919 37.0068C654.353 37.7686 653.582 38.3594 652.605 38.7793C653.757 39.1016 654.666 39.7168 655.33 40.625C656.003 41.5234 656.34 42.5977 656.34 43.8477C656.34 45.7617 655.72 47.2656 654.48 48.3594C653.24 49.4531 651.487 50 649.221 50H641.824ZM644.636 40.0244V47.7002H649.28C650.588 47.7002 651.619 47.3633 652.371 46.6895C653.132 46.0059 653.513 45.0684 653.513 43.877C653.513 41.3086 652.117 40.0244 649.324 40.0244H644.636ZM644.636 37.7686H648.884C650.115 37.7686 651.096 37.4609 651.829 36.8457C652.571 36.2305 652.942 35.3955 652.942 34.3408C652.942 33.1689 652.6 32.3193 651.917 31.792C651.233 31.2549 650.193 30.9863 648.796 30.9863H644.636V37.7686ZM663.039 50H660.329V27.5H663.039V50ZM677.179 48.4326C676.125 49.6729 674.577 50.293 672.536 50.293C670.846 50.293 669.557 49.8047 668.668 48.8281C667.79 47.8418 667.345 46.3867 667.335 44.4629V34.1504H670.045V44.3896C670.045 46.792 671.022 47.9932 672.975 47.9932C675.045 47.9932 676.422 47.2217 677.106 45.6787V34.1504H679.816V50H677.238L677.179 48.4326ZM690.528 50.293C688.38 50.293 686.632 49.5898 685.284 48.1836C683.937 46.7676 683.263 44.8779 683.263 42.5146V42.0166C683.263 40.4443 683.561 39.043 684.156 37.8125C684.762 36.5723 685.602 35.6055 686.676 34.9121C687.76 34.209 688.932 33.8574 690.191 33.8574C692.252 33.8574 693.854 34.5361 694.996 35.8936C696.139 37.251 696.71 39.1943 696.71 41.7236V42.8516H685.973C686.012 44.4141 686.466 45.6787 687.335 46.6455C688.214 47.6025 689.327 48.0811 690.675 48.0811C691.632 48.0811 692.442 47.8857 693.106 47.4951C693.771 47.1045 694.352 46.5869 694.85 45.9424L696.505 47.2314C695.177 49.2725 693.185 50.293 690.528 50.293ZM690.191 36.084C689.098 36.084 688.18 36.4844 687.438 37.2852C686.695 38.0762 686.236 39.1895 686.061 40.625H694V40.4199C693.922 39.043 693.551 37.9785 692.887 37.2266C692.223 36.4648 691.324 36.084 690.191 36.084Z" fill="#1B314D"/>
<path d="M980.105 89.0098H978.246V86.002H980.707L981.527 81.9688H978.246V78.9473H982.143L983.223 73.6152H986.285L985.205 78.9473H988.227L989.279 73.6152H992.451L991.357 78.9473H993.244V81.9688H990.742L989.922 86.002H993.244V89.0098H989.307L988.227 94.3418H985.178L986.23 89.0098H983.195L982.115 94.3418H979.025L980.105 89.0098ZM984.604 81.9688L983.797 86.002H986.832L987.625 81.9688H984.604ZM994.643 88.6816L998.362 88.2305C998.48 89.1784 998.799 89.903 999.319 90.4043C999.838 90.9056 1000.47 91.1562 1001.21 91.1562C1002 91.1562 1002.66 90.8555 1003.2 90.2539C1003.75 89.6523 1004.02 88.8411 1004.02 87.8203C1004.02 86.8542 1003.76 86.0885 1003.24 85.5234C1002.72 84.9583 1002.09 84.6758 1001.34 84.6758C1000.85 84.6758 1000.26 84.7715 999.579 84.9629L1000 81.832C1001.04 81.8594 1001.83 81.6361 1002.38 81.1621C1002.93 80.679 1003.2 80.041 1003.2 79.248C1003.2 78.5736 1003 78.0358 1002.6 77.6348C1002.2 77.2337 1001.67 77.0332 1001 77.0332C1000.34 77.0332 999.784 77.2611 999.319 77.7168C998.854 78.1725 998.571 78.8379 998.471 79.7129L994.93 79.1113C995.176 77.8991 995.545 76.9329 996.038 76.2129C996.539 75.4837 997.232 74.9141 998.116 74.5039C999.009 74.0846 1000.01 73.875 1001.11 73.875C1003 73.875 1004.51 74.4766 1005.65 75.6797C1006.59 76.6641 1007.06 77.776 1007.06 79.0156C1007.06 80.7747 1006.1 82.1784 1004.17 83.2266C1005.32 83.4727 1006.24 84.0241 1006.92 84.8809C1007.61 85.7376 1007.96 86.7721 1007.96 87.9844C1007.96 89.7435 1007.32 91.2428 1006.03 92.4824C1004.75 93.722 1003.15 94.3418 1001.23 94.3418C999.419 94.3418 997.915 93.8223 996.721 92.7832C995.527 91.735 994.834 90.3678 994.643 88.6816ZM1023.39 78.8652L1019.67 79.2754C1019.58 78.5098 1019.34 77.9447 1018.96 77.5801C1018.57 77.2155 1018.08 77.0332 1017.47 77.0332C1016.65 77.0332 1015.97 77.3978 1015.4 78.127C1014.85 78.8561 1014.49 80.3737 1014.35 82.6797C1015.31 81.5495 1016.5 80.9844 1017.92 80.9844C1019.52 80.9844 1020.89 81.5951 1022.03 82.8164C1023.18 84.0378 1023.75 85.6146 1023.75 87.5469C1023.75 89.5977 1023.15 91.2428 1021.95 92.4824C1020.75 93.722 1019.2 94.3418 1017.32 94.3418C1015.29 94.3418 1013.63 93.5579 1012.33 91.9902C1011.02 90.4134 1010.37 87.834 1010.37 84.252C1010.37 80.5788 1011.05 77.931 1012.41 76.3086C1013.77 74.6862 1015.53 73.875 1017.7 73.875C1019.22 73.875 1020.48 74.3034 1021.47 75.1602C1022.47 76.0078 1023.11 77.2428 1023.39 78.8652ZM1014.68 87.2461C1014.68 88.4948 1014.96 89.4609 1015.54 90.1445C1016.11 90.819 1016.77 91.1562 1017.51 91.1562C1018.22 91.1562 1018.81 90.8783 1019.28 90.3223C1019.76 89.7663 1020 88.8548 1020 87.5879C1020 86.2845 1019.74 85.332 1019.23 84.7305C1018.72 84.1198 1018.08 83.8145 1017.32 83.8145C1016.58 83.8145 1015.95 84.1061 1015.44 84.6895C1014.93 85.2637 1014.68 86.1159 1014.68 87.2461ZM1026.04 89.3652L1029.76 88.9551C1029.85 89.7116 1030.09 90.2721 1030.47 90.6367C1030.85 91.0013 1031.36 91.1836 1031.99 91.1836C1032.78 91.1836 1033.46 90.819 1034.01 90.0898C1034.57 89.3607 1034.92 87.8477 1035.08 85.5508C1034.11 86.6719 1032.91 87.2324 1031.46 87.2324C1029.88 87.2324 1028.52 86.6263 1027.37 85.4141C1026.23 84.1927 1025.66 82.6068 1025.66 80.6562C1025.66 78.6237 1026.26 76.9876 1027.46 75.748C1028.68 74.4993 1030.22 73.875 1032.09 73.875C1034.12 73.875 1035.79 74.6634 1037.09 76.2402C1038.39 77.8079 1039.04 80.3919 1039.04 83.9922C1039.04 87.6562 1038.37 90.2995 1037.01 91.9219C1035.65 93.5443 1033.88 94.3555 1031.7 94.3555C1030.13 94.3555 1028.87 93.9408 1027.9 93.1113C1026.94 92.2728 1026.32 91.0241 1026.04 89.3652ZM1034.74 80.9707C1034.74 79.7311 1034.45 78.7695 1033.88 78.0859C1033.31 77.4023 1032.66 77.0605 1031.91 77.0605C1031.2 77.0605 1030.6 77.3431 1030.13 77.9082C1029.67 78.4642 1029.43 79.3802 1029.43 80.6562C1029.43 81.9505 1029.69 82.903 1030.2 83.5137C1030.71 84.1152 1031.35 84.416 1032.11 84.416C1032.85 84.416 1033.47 84.1243 1033.97 83.541C1034.48 82.9577 1034.74 82.1009 1034.74 80.9707ZM1041.41 88.6816L1045.13 88.2305C1045.25 89.1784 1045.57 89.903 1046.09 90.4043C1046.61 90.9056 1047.24 91.1562 1047.98 91.1562C1048.77 91.1562 1049.43 90.8555 1049.97 90.2539C1050.52 89.6523 1050.79 88.8411 1050.79 87.8203C1050.79 86.8542 1050.53 86.0885 1050.01 85.5234C1049.49 84.9583 1048.86 84.6758 1048.11 84.6758C1047.62 84.6758 1047.03 84.7715 1046.35 84.9629L1046.77 81.832C1047.81 81.8594 1048.61 81.6361 1049.15 81.1621C1049.7 80.679 1049.97 80.041 1049.97 79.248C1049.97 78.5736 1049.77 78.0358 1049.37 77.6348C1048.97 77.2337 1048.44 77.0332 1047.77 77.0332C1047.12 77.0332 1046.55 77.2611 1046.09 77.7168C1045.63 78.1725 1045.34 78.8379 1045.24 79.7129L1041.7 79.1113C1041.95 77.8991 1042.32 76.9329 1042.81 76.2129C1043.31 75.4837 1044 74.9141 1044.89 74.5039C1045.78 74.0846 1046.78 73.875 1047.88 73.875C1049.77 73.875 1051.28 74.4766 1052.42 75.6797C1053.36 76.6641 1053.83 77.776 1053.83 79.0156C1053.83 80.7747 1052.87 82.1784 1050.94 83.2266C1052.09 83.4727 1053.01 84.0241 1053.69 84.8809C1054.38 85.7376 1054.73 86.7721 1054.73 87.9844C1054.73 89.7435 1054.09 91.2428 1052.8 92.4824C1051.52 93.722 1049.92 94.3418 1048 94.3418C1046.19 94.3418 1044.69 93.8223 1043.49 92.7832C1042.3 91.735 1041.61 90.3678 1041.41 88.6816ZM1070.81 86.6309L1074.74 87.875C1074.14 90.0625 1073.13 91.6895 1071.73 92.7559C1070.33 93.8132 1068.56 94.3418 1066.41 94.3418C1063.75 94.3418 1061.56 93.4349 1059.85 91.6211C1058.13 89.7982 1057.28 87.3099 1057.28 84.1562C1057.28 80.8203 1058.14 78.2318 1059.86 76.3906C1061.58 74.5404 1063.85 73.6152 1066.66 73.6152C1069.11 73.6152 1071.1 74.3398 1072.63 75.7891C1073.54 76.6458 1074.23 77.8763 1074.68 79.4805L1070.68 80.4375C1070.44 79.3984 1069.94 78.5781 1069.19 77.9766C1068.44 77.375 1067.53 77.0742 1066.45 77.0742C1064.97 77.0742 1063.76 77.6074 1062.83 78.6738C1061.91 79.7402 1061.45 81.4674 1061.45 83.8555C1061.45 86.3893 1061.9 88.194 1062.81 89.2695C1063.73 90.3451 1064.91 90.8828 1066.37 90.8828C1067.45 90.8828 1068.37 90.541 1069.15 89.8574C1069.92 89.1738 1070.48 88.0983 1070.81 86.6309ZM1077.46 89.3652L1081.18 88.9551C1081.27 89.7116 1081.51 90.2721 1081.89 90.6367C1082.27 91.0013 1082.78 91.1836 1083.41 91.1836C1084.2 91.1836 1084.88 90.819 1085.43 90.0898C1085.99 89.3607 1086.34 87.8477 1086.5 85.5508C1085.53 86.6719 1084.33 87.2324 1082.88 87.2324C1081.3 87.2324 1079.94 86.6263 1078.79 85.4141C1077.65 84.1927 1077.08 82.6068 1077.08 80.6562C1077.08 78.6237 1077.68 76.9876 1078.88 75.748C1080.1 74.4993 1081.64 73.875 1083.5 73.875C1085.54 73.875 1087.21 74.6634 1088.51 76.2402C1089.81 77.8079 1090.46 80.3919 1090.46 83.9922C1090.46 87.6562 1089.78 90.2995 1088.43 91.9219C1087.07 93.5443 1085.3 94.3555 1083.12 94.3555C1081.55 94.3555 1080.29 93.9408 1079.32 93.1113C1078.36 92.2728 1077.74 91.0241 1077.46 89.3652ZM1086.16 80.9707C1086.16 79.7311 1085.87 78.7695 1085.3 78.0859C1084.73 77.4023 1084.07 77.0605 1083.33 77.0605C1082.62 77.0605 1082.02 77.3431 1081.55 77.9082C1081.08 78.4642 1080.85 79.3802 1080.85 80.6562C1080.85 81.9505 1081.11 82.903 1081.62 83.5137C1082.13 84.1152 1082.77 84.416 1083.53 84.416C1084.27 84.416 1084.89 84.1243 1085.39 83.541C1085.9 82.9577 1086.16 82.1009 1086.16 80.9707Z" fill="#1B314D"/>
<g filter="url(#filter2_d)">
<path fill-rule="evenodd" clip-rule="evenodd" d="M871 10C836.206 10 808 38.2061 808 73V73C808 107.794 836.206 136 871 136V136C905.794 136 934 107.794 934 73V73C934 38.2061 905.794 10 871 10V10Z" fill="white"/>
</g>
<path fill-rule="evenodd" clip-rule="evenodd" d="M871 10C836.206 10 808 38.2061 808 73V73C808 107.794 836.206 136 871 136V136C905.794 136 934 107.794 934 73V73C934 38.2061 905.794 10 871 10V10Z" fill="#3693C9"/>
<path d="M980.476 50V28.6719H987.448C989.763 28.6719 991.501 29.1504 992.663 30.1074C993.835 31.0645 994.421 32.4805 994.421 34.3555C994.421 35.3516 994.138 36.2354 993.571 37.0068C993.005 37.7686 992.233 38.3594 991.257 38.7793C992.409 39.1016 993.317 39.7168 993.981 40.625C994.655 41.5234 994.992 42.5977 994.992 43.8477C994.992 45.7617 994.372 47.2656 993.132 48.3594C991.892 49.4531 990.139 50 987.873 50H980.476ZM983.288 40.0244V47.7002H987.932C989.24 47.7002 990.271 47.3633 991.022 46.6895C991.784 46.0059 992.165 45.0684 992.165 43.877C992.165 41.3086 990.769 40.0244 987.976 40.0244H983.288ZM983.288 37.7686H987.536C988.767 37.7686 989.748 37.4609 990.48 36.8457C991.223 36.2305 991.594 35.3955 991.594 34.3408C991.594 33.1689 991.252 32.3193 990.568 31.792C989.885 31.2549 988.845 30.9863 987.448 30.9863H983.288V37.7686ZM998.029 41.9287C998.029 40.376 998.332 38.9795 998.937 37.7393C999.552 36.499 1000.4 35.542 1001.49 34.8682C1002.58 34.1943 1003.82 33.8574 1005.22 33.8574C1007.38 33.8574 1009.12 34.6045 1010.45 36.0986C1011.79 37.5928 1012.46 39.5801 1012.46 42.0605V42.251C1012.46 43.7939 1012.16 45.1807 1011.56 46.4111C1010.98 47.6318 1010.13 48.584 1009.03 49.2676C1007.94 49.9512 1006.68 50.293 1005.25 50.293C1003.1 50.293 1001.36 49.5459 1000.02 48.0518C998.693 46.5576 998.029 44.5801 998.029 42.1191V41.9287ZM1000.75 42.251C1000.75 44.0088 1001.16 45.4199 1001.97 46.4844C1002.79 47.5488 1003.88 48.0811 1005.25 48.0811C1006.63 48.0811 1007.72 47.5439 1008.53 46.4697C1009.34 45.3857 1009.75 43.8721 1009.75 41.9287C1009.75 40.1904 1009.33 38.7842 1008.5 37.71C1007.68 36.626 1006.59 36.084 1005.22 36.084C1003.88 36.084 1002.8 36.6162 1001.98 37.6807C1001.16 38.7451 1000.75 40.2686 1000.75 42.251ZM1025.09 45.7959C1025.09 45.0635 1024.81 44.4971 1024.25 44.0967C1023.71 43.6865 1022.75 43.335 1021.37 43.042C1020 42.749 1018.91 42.3975 1018.1 41.9873C1017.3 41.5771 1016.71 41.0889 1016.31 40.5225C1015.93 39.9561 1015.74 39.2822 1015.74 38.501C1015.74 37.2021 1016.29 36.1035 1017.38 35.2051C1018.49 34.3066 1019.89 33.8574 1021.6 33.8574C1023.4 33.8574 1024.85 34.3213 1025.97 35.249C1027.09 36.1768 1027.65 37.3633 1027.65 38.8086H1024.93C1024.93 38.0664 1024.61 37.4268 1023.98 36.8896C1023.35 36.3525 1022.56 36.084 1021.6 36.084C1020.62 36.084 1019.84 36.2988 1019.29 36.7285C1018.73 37.1582 1018.45 37.7197 1018.45 38.4131C1018.45 39.0674 1018.71 39.5605 1019.23 39.8926C1019.75 40.2246 1020.68 40.542 1022.03 40.8447C1023.38 41.1475 1024.48 41.5088 1025.32 41.9287C1026.16 42.3486 1026.78 42.8564 1027.18 43.4521C1027.59 44.0381 1027.8 44.7559 1027.8 45.6055C1027.8 47.0215 1027.23 48.1592 1026.1 49.0186C1024.97 49.8682 1023.5 50.293 1021.69 50.293C1020.42 50.293 1019.3 50.0684 1018.32 49.6191C1017.34 49.1699 1016.58 48.5449 1016.02 47.7441C1015.47 46.9336 1015.2 46.0596 1015.2 45.1221H1017.91C1017.96 46.0303 1018.32 46.7529 1019 47.29C1019.68 47.8174 1020.58 48.0811 1021.69 48.0811C1022.72 48.0811 1023.54 47.876 1024.15 47.4658C1024.78 47.0459 1025.09 46.4893 1025.09 45.7959ZM1035.01 30.3125V34.1504H1037.97V36.2451H1035.01V46.0742C1035.01 46.709 1035.14 47.1875 1035.41 47.5098C1035.67 47.8223 1036.12 47.9785 1036.75 47.9785C1037.07 47.9785 1037.5 47.9199 1038.04 47.8027V50C1037.33 50.1953 1036.64 50.293 1035.96 50.293C1034.75 50.293 1033.84 49.9268 1033.22 49.1943C1032.61 48.4619 1032.3 47.4219 1032.3 46.0742V36.2451H1029.41V34.1504H1032.3V30.3125H1035.01ZM1040.14 41.9287C1040.14 40.376 1040.44 38.9795 1041.05 37.7393C1041.67 36.499 1042.51 35.542 1043.6 34.8682C1044.69 34.1943 1045.94 33.8574 1047.33 33.8574C1049.49 33.8574 1051.24 34.6045 1052.56 36.0986C1053.9 37.5928 1054.57 39.5801 1054.57 42.0605V42.251C1054.57 43.7939 1054.27 45.1807 1053.68 46.4111C1053.09 47.6318 1052.25 48.584 1051.14 49.2676C1050.05 49.9512 1048.79 50.293 1047.36 50.293C1045.21 50.293 1043.47 49.5459 1042.13 48.0518C1040.81 46.5576 1040.14 44.5801 1040.14 42.1191V41.9287ZM1042.87 42.251C1042.87 44.0088 1043.27 45.4199 1044.08 46.4844C1044.9 47.5488 1046 48.0811 1047.36 48.0811C1048.74 48.0811 1049.83 47.5439 1050.64 46.4697C1051.46 45.3857 1051.86 43.8721 1051.86 41.9287C1051.86 40.1904 1051.45 38.7842 1050.62 37.71C1049.79 36.626 1048.7 36.084 1047.33 36.084C1046 36.084 1044.92 36.6162 1044.1 37.6807C1043.28 38.7451 1042.87 40.2686 1042.87 42.251ZM1060.54 34.1504L1060.62 36.1426C1061.84 34.6191 1063.42 33.8574 1065.37 33.8574C1068.72 33.8574 1070.41 35.7471 1070.44 39.5264V50H1067.73V39.5117C1067.72 38.3691 1067.46 37.5244 1066.94 36.9775C1066.43 36.4307 1065.63 36.1572 1064.55 36.1572C1063.67 36.1572 1062.9 36.3916 1062.24 36.8604C1061.57 37.3291 1061.05 37.9443 1060.68 38.7061V50H1057.97V34.1504H1060.54ZM1082.4 50V28.6719H1089.37C1091.69 28.6719 1093.43 29.1504 1094.59 30.1074C1095.76 31.0645 1096.35 32.4805 1096.35 34.3555C1096.35 35.3516 1096.06 36.2354 1095.5 37.0068C1094.93 37.7686 1094.16 38.3594 1093.18 38.7793C1094.33 39.1016 1095.24 39.7168 1095.91 40.625C1096.58 41.5234 1096.92 42.5977 1096.92 43.8477C1096.92 45.7617 1096.3 47.2656 1095.06 48.3594C1093.82 49.4531 1092.06 50 1089.8 50H1082.4ZM1085.21 40.0244V47.7002H1089.86C1091.17 47.7002 1092.2 47.3633 1092.95 46.6895C1093.71 46.0059 1094.09 45.0684 1094.09 43.877C1094.09 41.3086 1092.69 40.0244 1089.9 40.0244H1085.21ZM1085.21 37.7686H1089.46C1090.69 37.7686 1091.67 37.4609 1092.41 36.8457C1093.15 36.2305 1093.52 35.3955 1093.52 34.3408C1093.52 33.1689 1093.18 32.3193 1092.49 31.792C1091.81 31.2549 1090.77 30.9863 1089.37 30.9863H1085.21V37.7686ZM1103.62 50H1100.91V27.5H1103.62V50ZM1117.76 48.4326C1116.7 49.6729 1115.15 50.293 1113.11 50.293C1111.42 50.293 1110.13 49.8047 1109.25 48.8281C1108.37 47.8418 1107.92 46.3867 1107.91 44.4629V34.1504H1110.62V44.3896C1110.62 46.792 1111.6 47.9932 1113.55 47.9932C1115.62 47.9932 1117 47.2217 1117.68 45.6787V34.1504H1120.39V50H1117.81L1117.76 48.4326ZM1131.11 50.293C1128.96 50.293 1127.21 49.5898 1125.86 48.1836C1124.51 46.7676 1123.84 44.8779 1123.84 42.5146V42.0166C1123.84 40.4443 1124.14 39.043 1124.73 37.8125C1125.34 36.5723 1126.18 35.6055 1127.25 34.9121C1128.34 34.209 1129.51 33.8574 1130.77 33.8574C1132.83 33.8574 1134.43 34.5361 1135.57 35.8936C1136.72 37.251 1137.29 39.1943 1137.29 41.7236V42.8516H1126.55C1126.59 44.4141 1127.04 45.6787 1127.91 46.6455C1128.79 47.6025 1129.9 48.0811 1131.25 48.0811C1132.21 48.0811 1133.02 47.8857 1133.68 47.4951C1134.35 47.1045 1134.93 46.5869 1135.43 45.9424L1137.08 47.2314C1135.75 49.2725 1133.76 50.293 1131.11 50.293ZM1130.77 36.084C1129.67 36.084 1128.76 36.4844 1128.01 37.2852C1127.27 38.0762 1126.81 39.1895 1126.64 40.625H1134.58V40.4199C1134.5 39.043 1134.13 37.9785 1133.46 37.2266C1132.8 36.4648 1131.9 36.084 1130.77 36.084Z" fill="#1B314D"/>
<path d="M169.105 284.01H167.246V281.002H169.707L170.527 276.969H167.246V273.947H171.143L172.223 268.615H175.285L174.205 273.947H177.227L178.279 268.615H181.451L180.357 273.947H182.244V276.969H179.742L178.922 281.002H182.244V284.01H178.307L177.227 289.342H174.178L175.23 284.01H172.195L171.115 289.342H168.025L169.105 284.01ZM173.604 276.969L172.797 281.002H175.832L176.625 276.969H173.604ZM184.655 289V268.957H198.395V272.348H188.702V277.092H197.069V280.482H188.702V289H184.655ZM201.776 289V268.957H215.517V272.348H205.823V277.092H214.19V280.482H205.823V289H201.776ZM231.039 273.865L227.32 274.275C227.229 273.51 226.992 272.945 226.609 272.58C226.226 272.215 225.729 272.033 225.119 272.033C224.307 272.033 223.619 272.398 223.054 273.127C222.498 273.856 222.147 275.374 222.001 277.68C222.959 276.549 224.148 275.984 225.57 275.984C227.174 275.984 228.546 276.595 229.685 277.816C230.834 279.038 231.408 280.615 231.408 282.547C231.408 284.598 230.806 286.243 229.603 287.482C228.4 288.722 226.855 289.342 224.968 289.342C222.945 289.342 221.281 288.558 219.978 286.99C218.675 285.413 218.023 282.834 218.023 279.252C218.023 275.579 218.702 272.931 220.06 271.309C221.418 269.686 223.182 268.875 225.351 268.875C226.873 268.875 228.131 269.303 229.125 270.16C230.127 271.008 230.765 272.243 231.039 273.865ZM222.33 282.246C222.33 283.495 222.617 284.461 223.191 285.145C223.765 285.819 224.421 286.156 225.16 286.156C225.871 286.156 226.463 285.878 226.937 285.322C227.411 284.766 227.648 283.855 227.648 282.588C227.648 281.285 227.393 280.332 226.882 279.73C226.372 279.12 225.734 278.814 224.968 278.814C224.23 278.814 223.606 279.106 223.095 279.689C222.585 280.264 222.33 281.116 222.33 282.246ZM233.668 283.846L237.496 283.449C237.605 284.315 237.929 285.003 238.467 285.514C239.005 286.015 239.624 286.266 240.326 286.266C241.128 286.266 241.807 285.942 242.363 285.295C242.919 284.639 243.197 283.654 243.197 282.342C243.197 281.111 242.919 280.191 242.363 279.58C241.816 278.96 241.101 278.65 240.217 278.65C239.114 278.65 238.125 279.138 237.25 280.113L234.133 279.662L236.102 269.23H246.26V272.826H239.014L238.412 276.23C239.269 275.802 240.144 275.588 241.037 275.588C242.742 275.588 244.186 276.208 245.371 277.447C246.556 278.687 247.148 280.296 247.148 282.273C247.148 283.923 246.67 285.395 245.713 286.689C244.41 288.458 242.6 289.342 240.285 289.342C238.435 289.342 236.926 288.845 235.76 287.852C234.593 286.858 233.896 285.523 233.668 283.846ZM249.204 272.799V269.23H262.342V272.02C261.258 273.086 260.155 274.617 259.034 276.613C257.913 278.609 257.056 280.733 256.463 282.984C255.88 285.227 255.593 287.232 255.602 289H251.897C251.961 286.229 252.53 283.404 253.606 280.523C254.691 277.643 256.135 275.068 257.94 272.799H249.204ZM264.876 284.365L268.595 283.955C268.686 284.712 268.923 285.272 269.306 285.637C269.689 286.001 270.194 286.184 270.823 286.184C271.616 286.184 272.291 285.819 272.847 285.09C273.403 284.361 273.758 282.848 273.913 280.551C272.947 281.672 271.739 282.232 270.29 282.232C268.713 282.232 267.351 281.626 266.202 280.414C265.063 279.193 264.493 277.607 264.493 275.656C264.493 273.624 265.095 271.988 266.298 270.748C267.51 269.499 269.05 268.875 270.919 268.875C272.952 268.875 274.619 269.663 275.923 271.24C277.226 272.808 277.878 275.392 277.878 278.992C277.878 282.656 277.199 285.299 275.841 286.922C274.483 288.544 272.715 289.355 270.536 289.355C268.968 289.355 267.702 288.941 266.735 288.111C265.769 287.273 265.149 286.024 264.876 284.365ZM273.571 275.971C273.571 274.731 273.284 273.77 272.71 273.086C272.145 272.402 271.489 272.061 270.741 272.061C270.03 272.061 269.438 272.343 268.964 272.908C268.499 273.464 268.267 274.38 268.267 275.656C268.267 276.951 268.522 277.903 269.032 278.514C269.543 279.115 270.181 279.416 270.946 279.416C271.685 279.416 272.304 279.124 272.806 278.541C273.316 277.958 273.571 277.101 273.571 275.971Z" fill="#141F33"/>
<g filter="url(#filter3_d)">
<path fill-rule="evenodd" clip-rule="evenodd" d="M71 204C36.2061 204 8 232.206 8 267V267C8 301.794 36.2061 330 71 330V330C105.794 330 134 301.794 134 267V267C134 232.206 105.794 204 71 204V204Z" fill="white"/>
</g>
<path fill-rule="evenodd" clip-rule="evenodd" d="M71 204C36.2061 204 8 232.206 8 267V267C8 301.794 36.2061 330 71 330V330C105.794 330 134 301.794 134 267V267C134 232.206 105.794 204 71 204V204Z" fill="#FF6579"/>
<path d="M180.531 235.142H171.288V242.7H182.025V245H168.476V223.672H181.879V225.986H171.288V232.842H180.531V235.142ZM192.767 231.582C192.357 231.514 191.913 231.479 191.434 231.479C189.657 231.479 188.451 232.236 187.816 233.75V245H185.106V229.15H187.743L187.787 230.981C188.675 229.565 189.935 228.857 191.566 228.857C192.093 228.857 192.494 228.926 192.767 229.062V231.582ZM202.938 231.582C202.527 231.514 202.083 231.479 201.605 231.479C199.827 231.479 198.621 232.236 197.986 233.75V245H195.276V229.15H197.913L197.957 230.981C198.846 229.565 200.105 228.857 201.736 228.857C202.264 228.857 202.664 228.926 202.938 229.062V231.582ZM204.436 236.929C204.436 235.376 204.739 233.979 205.344 232.739C205.959 231.499 206.809 230.542 207.893 229.868C208.987 229.194 210.232 228.857 211.628 228.857C213.787 228.857 215.53 229.604 216.858 231.099C218.196 232.593 218.865 234.58 218.865 237.061V237.251C218.865 238.794 218.567 240.181 217.971 241.411C217.385 242.632 216.541 243.584 215.437 244.268C214.343 244.951 213.084 245.293 211.658 245.293C209.509 245.293 207.766 244.546 206.428 243.052C205.1 241.558 204.436 239.58 204.436 237.119V236.929ZM207.161 237.251C207.161 239.009 207.566 240.42 208.376 241.484C209.197 242.549 210.291 243.081 211.658 243.081C213.035 243.081 214.128 242.544 214.939 241.47C215.75 240.386 216.155 238.872 216.155 236.929C216.155 235.19 215.74 233.784 214.91 232.71C214.089 231.626 212.996 231.084 211.628 231.084C210.291 231.084 209.211 231.616 208.391 232.681C207.571 233.745 207.161 235.269 207.161 237.251ZM229.929 231.582C229.519 231.514 229.074 231.479 228.596 231.479C226.818 231.479 225.612 232.236 224.978 233.75V245H222.268V229.15H224.904L224.948 230.981C225.837 229.565 227.097 228.857 228.728 228.857C229.255 228.857 229.655 228.926 229.929 229.062V231.582Z" fill="#1B314D"/>
<path d="M589.119 284.395H586.48L585.496 290H582.994L583.979 284.395H580.875V282.043H584.389L585.072 278.16H581.9V275.781H585.496L586.494 270.094H588.982L587.984 275.781H590.637L591.635 270.094H594.137L593.139 275.781H596.133V278.16H592.715L592.031 282.043H595.094V284.395H591.621L590.637 290H588.135L589.119 284.395ZM586.891 282.043H589.529L590.213 278.16H587.561L586.891 282.043ZM610.438 281.373H602.563V286.705H611.805V290H598.461V270.094H611.778V273.416H602.563V278.16H610.438V281.373ZM614.216 290V270.094H620.341C622.091 270.094 623.654 270.49 625.03 271.283C626.416 272.067 627.496 273.188 628.271 274.646C629.045 276.096 629.433 277.745 629.433 279.596V280.512C629.433 282.362 629.05 284.007 628.284 285.447C627.528 286.887 626.457 288.004 625.071 288.797C623.686 289.59 622.123 289.991 620.382 290H614.216ZM618.317 273.416V286.705H620.3C621.904 286.705 623.13 286.181 623.978 285.133C624.825 284.085 625.258 282.585 625.276 280.635V279.582C625.276 277.559 624.857 276.027 624.019 274.988C623.18 273.94 621.954 273.416 620.341 273.416H618.317ZM645.542 272.309L637.845 290H633.675L641.386 273.293H631.488V270.094H645.542V272.309ZM661.488 281.77C661.488 284.522 660.919 286.628 659.779 288.086C658.64 289.544 656.972 290.273 654.775 290.273C652.606 290.273 650.947 289.558 649.799 288.127C648.65 286.696 648.063 284.645 648.035 281.975V278.311C648.035 275.531 648.609 273.421 649.758 271.98C650.915 270.54 652.579 269.82 654.748 269.82C656.917 269.82 658.576 270.536 659.725 271.967C660.873 273.389 661.461 275.435 661.488 278.105V281.77ZM657.537 277.75C657.537 276.1 657.309 274.902 656.854 274.154C656.407 273.398 655.705 273.02 654.748 273.02C653.818 273.02 653.13 273.38 652.684 274.1C652.246 274.811 652.014 275.927 651.986 277.449V282.289C651.986 283.911 652.205 285.119 652.643 285.912C653.089 286.696 653.8 287.088 654.775 287.088C655.742 287.088 656.439 286.71 656.867 285.953C657.296 285.197 657.519 284.039 657.537 282.48V277.75ZM675.862 282.508H678.118V285.693H675.862V290H671.911V285.693H663.749L663.571 283.205L671.87 270.094H675.862V282.508ZM667.508 282.508H671.911V275.48L671.651 275.932L667.508 282.508ZM684.274 278.297H686.38C687.383 278.297 688.125 278.046 688.608 277.545C689.092 277.044 689.333 276.378 689.333 275.549C689.333 274.747 689.092 274.122 688.608 273.676C688.134 273.229 687.478 273.006 686.64 273.006C685.883 273.006 685.25 273.215 684.739 273.635C684.229 274.045 683.974 274.583 683.974 275.248H680.022C680.022 274.209 680.3 273.279 680.856 272.459C681.422 271.63 682.205 270.982 683.208 270.518C684.22 270.053 685.332 269.82 686.544 269.82C688.649 269.82 690.299 270.326 691.493 271.338C692.687 272.34 693.284 273.726 693.284 275.494C693.284 276.406 693.006 277.244 692.45 278.01C691.894 278.775 691.165 279.363 690.263 279.773C691.384 280.174 692.218 280.776 692.765 281.578C693.321 282.38 693.599 283.328 693.599 284.422C693.599 286.19 692.952 287.607 691.657 288.674C690.372 289.74 688.668 290.273 686.544 290.273C684.557 290.273 682.93 289.749 681.663 288.701C680.405 287.653 679.776 286.268 679.776 284.545H683.728C683.728 285.292 684.006 285.903 684.562 286.377C685.127 286.851 685.819 287.088 686.64 287.088C687.578 287.088 688.312 286.842 688.841 286.35C689.379 285.848 689.647 285.188 689.647 284.367C689.647 282.38 688.554 281.387 686.366 281.387H684.274V278.297Z" fill="#1B314D"/>
<g filter="url(#filter4_d)">
<path fill-rule="evenodd" clip-rule="evenodd" d="M473 205C438.206 205 410 233.206 410 268V268C410 302.794 438.206 331 473 331V331C507.794 331 536 302.794 536 268V268C536 233.206 507.794 205 473 205V205Z" fill="white"/>
</g>
<path fill-rule="evenodd" clip-rule="evenodd" d="M473 205C438.206 205 410 233.206 410 268V268C410 302.794 438.206 331 473 331V331C507.794 331 536 302.794 536 268V268C536 233.206 507.794 205 473 205V205Z" fill="#ED7043"/>
<path d="M587.075 238.276L587.485 241.089L588.086 238.555L592.305 223.672H594.678L598.794 238.555L599.38 241.133L599.834 238.262L603.145 223.672H605.972L600.801 245H598.237L593.843 229.458L593.506 227.832L593.169 229.458L588.613 245H586.05L580.894 223.672H583.706L587.075 238.276ZM617.973 245C617.817 244.688 617.69 244.131 617.592 243.33C616.333 244.639 614.829 245.293 613.081 245.293C611.518 245.293 610.234 244.854 609.228 243.975C608.232 243.086 607.734 241.963 607.734 240.605C607.734 238.955 608.359 237.676 609.609 236.768C610.869 235.85 612.636 235.391 614.912 235.391H617.548V234.146C617.548 233.198 617.265 232.446 616.699 231.89C616.132 231.323 615.297 231.04 614.194 231.04C613.227 231.04 612.417 231.284 611.762 231.772C611.108 232.261 610.781 232.852 610.781 233.545H608.056C608.056 232.754 608.334 231.992 608.891 231.26C609.458 230.518 610.219 229.932 611.176 229.502C612.143 229.072 613.203 228.857 614.355 228.857C616.181 228.857 617.612 229.316 618.647 230.234C619.682 231.143 620.219 232.397 620.258 233.999V241.294C620.258 242.749 620.444 243.906 620.815 244.766V245H617.973ZM613.476 242.935C614.326 242.935 615.131 242.715 615.893 242.275C616.655 241.836 617.207 241.265 617.548 240.562V237.31H615.424C612.104 237.31 610.444 238.281 610.444 240.225C610.444 241.074 610.727 241.738 611.293 242.217C611.86 242.695 612.587 242.935 613.476 242.935ZM632.172 231.582C631.762 231.514 631.317 231.479 630.839 231.479C629.062 231.479 627.855 232.236 627.221 233.75V245H624.511V229.15H627.147L627.191 230.981C628.08 229.565 629.34 228.857 630.971 228.857C631.498 228.857 631.898 228.926 632.172 229.062V231.582ZM637.245 229.15L637.333 231.143C638.543 229.619 640.126 228.857 642.079 228.857C645.428 228.857 647.118 230.747 647.147 234.526V245H644.437V234.512C644.427 233.369 644.164 232.524 643.646 231.978C643.138 231.431 642.342 231.157 641.258 231.157C640.379 231.157 639.608 231.392 638.944 231.86C638.28 232.329 637.762 232.944 637.391 233.706V245H634.681V229.15H637.245ZM654.183 245H651.473V229.15H654.183V245ZM651.253 224.946C651.253 224.507 651.385 224.136 651.648 223.833C651.922 223.53 652.322 223.379 652.85 223.379C653.377 223.379 653.777 223.53 654.051 223.833C654.324 224.136 654.461 224.507 654.461 224.946C654.461 225.386 654.324 225.752 654.051 226.045C653.777 226.338 653.377 226.484 652.85 226.484C652.322 226.484 651.922 226.338 651.648 226.045C651.385 225.752 651.253 225.386 651.253 224.946ZM661.101 229.15L661.189 231.143C662.4 229.619 663.982 228.857 665.935 228.857C669.285 228.857 670.974 230.747 671.003 234.526V245H668.293V234.512C668.284 233.369 668.02 232.524 667.502 231.978C666.995 231.431 666.199 231.157 665.115 231.157C664.236 231.157 663.464 231.392 662.8 231.86C662.136 232.329 661.619 232.944 661.248 233.706V245H658.538V229.15H661.101ZM674.45 236.943C674.45 234.473 675.022 232.51 676.164 231.055C677.307 229.59 678.82 228.857 680.705 228.857C682.639 228.857 684.147 229.541 685.231 230.908L685.363 229.15H687.839V244.619C687.839 246.67 687.229 248.286 686.008 249.468C684.797 250.649 683.166 251.24 681.115 251.24C679.973 251.24 678.855 250.996 677.761 250.508C676.667 250.02 675.832 249.351 675.256 248.501L676.662 246.875C677.824 248.311 679.245 249.028 680.925 249.028C682.243 249.028 683.269 248.657 684.001 247.915C684.743 247.173 685.114 246.128 685.114 244.78V243.418C684.03 244.668 682.551 245.293 680.676 245.293C678.82 245.293 677.316 244.546 676.164 243.052C675.022 241.558 674.45 239.521 674.45 236.943ZM677.175 237.251C677.175 239.038 677.541 240.444 678.273 241.47C679.006 242.485 680.031 242.993 681.35 242.993C683.059 242.993 684.314 242.217 685.114 240.664V233.428C684.284 231.914 683.039 231.157 681.379 231.157C680.061 231.157 679.03 231.67 678.288 232.695C677.546 233.721 677.175 235.239 677.175 237.251Z" fill="#1B314D"/>
<path d="M980.105 284.01H978.246V281.002H980.707L981.527 276.969H978.246V273.947H982.143L983.223 268.615H986.285L985.205 273.947H988.227L989.279 268.615H992.451L991.357 273.947H993.244V276.969H990.742L989.922 281.002H993.244V284.01H989.307L988.227 289.342H985.178L986.23 284.01H983.195L982.115 289.342H979.025L980.105 284.01ZM984.604 276.969L983.797 281.002H986.832L987.625 276.969H984.604ZM1001.27 268.875C1003.22 268.875 1004.73 269.568 1005.83 270.953C1007.13 272.594 1007.78 275.314 1007.78 279.115C1007.78 282.907 1007.13 285.632 1005.81 287.291C1004.73 288.658 1003.22 289.342 1001.27 289.342C999.323 289.342 997.751 288.594 996.557 287.1C995.363 285.596 994.766 282.921 994.766 279.074C994.766 275.301 995.422 272.585 996.735 270.926C997.82 269.559 999.333 268.875 1001.27 268.875ZM1001.27 272.061C1000.81 272.061 1000.39 272.211 1000.03 272.512C999.665 272.803 999.383 273.332 999.182 274.098C998.918 275.091 998.786 276.764 998.786 279.115C998.786 281.467 998.904 283.085 999.141 283.969C999.378 284.844 999.674 285.427 1000.03 285.719C1000.39 286.01 1000.81 286.156 1001.27 286.156C1001.74 286.156 1002.15 286.01 1002.52 285.719C1002.88 285.418 1003.17 284.885 1003.37 284.119C1003.63 283.135 1003.76 281.467 1003.76 279.115C1003.76 276.764 1003.64 275.15 1003.41 274.275C1003.17 273.391 1002.87 272.803 1002.5 272.512C1002.15 272.211 1001.74 272.061 1001.27 272.061ZM1011.2 268.957H1018.6C1020.27 268.957 1021.54 269.085 1022.42 269.34C1023.59 269.686 1024.6 270.301 1025.44 271.186C1026.28 272.07 1026.91 273.154 1027.35 274.439C1027.79 275.715 1028.01 277.292 1028.01 279.17C1028.01 280.82 1027.8 282.242 1027.39 283.436C1026.89 284.894 1026.17 286.074 1025.25 286.977C1024.54 287.66 1023.6 288.193 1022.4 288.576C1021.51 288.859 1020.31 289 1018.82 289H1011.2V268.957ZM1015.25 272.348V285.623H1018.27C1019.4 285.623 1020.22 285.559 1020.72 285.432C1021.38 285.268 1021.92 284.99 1022.35 284.598C1022.78 284.206 1023.14 283.563 1023.41 282.67C1023.69 281.768 1023.82 280.542 1023.82 278.992C1023.82 277.443 1023.69 276.253 1023.41 275.424C1023.14 274.594 1022.76 273.947 1022.26 273.482C1021.77 273.018 1021.15 272.703 1020.39 272.539C1019.83 272.411 1018.72 272.348 1017.07 272.348H1015.25ZM1031.44 268.957H1038.84C1040.51 268.957 1041.78 269.085 1042.65 269.34C1043.83 269.686 1044.84 270.301 1045.68 271.186C1046.51 272.07 1047.15 273.154 1047.59 274.439C1048.03 275.715 1048.25 277.292 1048.25 279.17C1048.25 280.82 1048.04 282.242 1047.63 283.436C1047.13 284.894 1046.41 286.074 1045.48 286.977C1044.78 287.66 1043.83 288.193 1042.64 288.576C1041.75 288.859 1040.55 289 1039.06 289H1031.44V268.957ZM1035.49 272.348V285.623H1038.51C1039.64 285.623 1040.46 285.559 1040.96 285.432C1041.61 285.268 1042.16 284.99 1042.59 284.598C1043.02 284.206 1043.38 283.563 1043.65 282.67C1043.93 281.768 1044.06 280.542 1044.06 278.992C1044.06 277.443 1043.93 276.253 1043.65 275.424C1043.38 274.594 1043 273.947 1042.5 273.482C1042.01 273.018 1041.39 272.703 1040.63 272.539C1040.07 272.411 1038.96 272.348 1037.31 272.348H1035.49ZM1050.93 284.365L1054.65 283.955C1054.74 284.712 1054.98 285.272 1055.36 285.637C1055.74 286.001 1056.25 286.184 1056.88 286.184C1057.67 286.184 1058.34 285.819 1058.9 285.09C1059.46 284.361 1059.81 282.848 1059.97 280.551C1059 281.672 1057.79 282.232 1056.34 282.232C1054.77 282.232 1053.4 281.626 1052.26 280.414C1051.12 279.193 1050.55 277.607 1050.55 275.656C1050.55 273.624 1051.15 271.988 1052.35 270.748C1053.56 269.499 1055.1 268.875 1056.97 268.875C1059.01 268.875 1060.67 269.663 1061.98 271.24C1063.28 272.808 1063.93 275.392 1063.93 278.992C1063.93 282.656 1063.25 285.299 1061.89 286.922C1060.54 288.544 1058.77 289.355 1056.59 289.355C1055.02 289.355 1053.76 288.941 1052.79 288.111C1051.82 287.273 1051.2 286.024 1050.93 284.365ZM1059.63 275.971C1059.63 274.731 1059.34 273.77 1058.76 273.086C1058.2 272.402 1057.54 272.061 1056.79 272.061C1056.08 272.061 1055.49 272.343 1055.02 272.908C1054.55 273.464 1054.32 274.38 1054.32 275.656C1054.32 276.951 1054.58 277.903 1055.09 278.514C1055.6 279.115 1056.23 279.416 1057 279.416C1057.74 279.416 1058.36 279.124 1058.86 278.541C1059.37 277.958 1059.63 277.101 1059.63 275.971ZM1069.73 278.186C1068.74 277.766 1068.01 277.192 1067.56 276.463C1067.11 275.725 1066.89 274.918 1066.89 274.043C1066.89 272.548 1067.41 271.313 1068.45 270.338C1069.5 269.363 1070.98 268.875 1072.9 268.875C1074.81 268.875 1076.29 269.363 1077.33 270.338C1078.39 271.313 1078.92 272.548 1078.92 274.043C1078.92 274.973 1078.68 275.802 1078.2 276.531C1077.71 277.251 1077.03 277.803 1076.16 278.186C1077.27 278.632 1078.11 279.284 1078.69 280.141C1079.27 280.997 1079.56 281.986 1079.56 283.107C1079.56 284.958 1078.97 286.462 1077.79 287.619C1076.61 288.777 1075.04 289.355 1073.08 289.355C1071.26 289.355 1069.74 288.877 1068.53 287.92C1067.1 286.79 1066.38 285.24 1066.38 283.271C1066.38 282.187 1066.65 281.193 1067.19 280.291C1067.73 279.38 1068.58 278.678 1069.73 278.186ZM1070.53 274.316C1070.53 275.082 1070.74 275.679 1071.17 276.107C1071.61 276.536 1072.18 276.75 1072.9 276.75C1073.63 276.75 1074.22 276.536 1074.65 276.107C1075.09 275.67 1075.31 275.068 1075.31 274.303C1075.31 273.583 1075.09 273.008 1074.65 272.58C1074.23 272.143 1073.66 271.924 1072.95 271.924C1072.21 271.924 1071.62 272.143 1071.18 272.58C1070.74 273.018 1070.53 273.596 1070.53 274.316ZM1070.17 282.902C1070.17 283.96 1070.44 284.785 1070.98 285.377C1071.52 285.969 1072.2 286.266 1073.01 286.266C1073.81 286.266 1074.46 285.983 1074.98 285.418C1075.5 284.844 1075.76 284.019 1075.76 282.943C1075.76 282.005 1075.5 281.253 1074.97 280.688C1074.44 280.113 1073.77 279.826 1072.96 279.826C1072.02 279.826 1071.32 280.15 1070.85 280.797C1070.4 281.444 1070.17 282.146 1070.17 282.902ZM1085.32 278.186C1084.33 277.766 1083.61 277.192 1083.15 276.463C1082.7 275.725 1082.48 274.918 1082.48 274.043C1082.48 272.548 1083 271.313 1084.04 270.338C1085.09 269.363 1086.57 268.875 1088.5 268.875C1090.4 268.875 1091.88 269.363 1092.92 270.338C1093.98 271.313 1094.51 272.548 1094.51 274.043C1094.51 274.973 1094.27 275.802 1093.79 276.531C1093.3 277.251 1092.62 277.803 1091.75 278.186C1092.86 278.632 1093.7 279.284 1094.28 280.141C1094.86 280.997 1095.15 281.986 1095.15 283.107C1095.15 284.958 1094.56 286.462 1093.38 287.619C1092.2 288.777 1090.63 289.355 1088.67 289.355C1086.85 289.355 1085.33 288.877 1084.12 287.92C1082.69 286.79 1081.97 285.24 1081.97 283.271C1081.97 282.187 1082.24 281.193 1082.78 280.291C1083.32 279.38 1084.17 278.678 1085.32 278.186ZM1086.12 274.316C1086.12 275.082 1086.33 275.679 1086.76 276.107C1087.2 276.536 1087.78 276.75 1088.5 276.75C1089.22 276.75 1089.81 276.536 1090.25 276.107C1090.68 275.67 1090.9 275.068 1090.9 274.303C1090.9 273.583 1090.68 273.008 1090.25 272.58C1089.82 272.143 1089.25 271.924 1088.54 271.924C1087.8 271.924 1087.21 272.143 1086.77 272.58C1086.33 273.018 1086.12 273.596 1086.12 274.316ZM1085.76 282.902C1085.76 283.96 1086.03 284.785 1086.57 285.377C1087.11 285.969 1087.79 286.266 1088.6 286.266C1089.4 286.266 1090.05 285.983 1090.57 285.418C1091.09 284.844 1091.35 284.019 1091.35 282.943C1091.35 282.005 1091.09 281.253 1090.56 280.688C1090.03 280.113 1089.36 279.826 1088.55 279.826C1087.61 279.826 1086.91 280.15 1086.44 280.797C1085.99 281.444 1085.76 282.146 1085.76 282.902Z" fill="#1B314D"/>
<g filter="url(#filter5_d)">
<path fill-rule="evenodd" clip-rule="evenodd" d="M871 205C836.206 205 808 233.206 808 268V268C808 302.794 836.206 331 871 331V331C905.794 331 934 302.794 934 268V268C934 233.206 905.794 205 871 205V205Z" fill="white"/>
</g>
<path fill-rule="evenodd" clip-rule="evenodd" d="M871 205C836.206 205 808 233.206 808 268V268C808 302.794 836.206 331 871 331V331C905.794 331 934 302.794 934 268V268C934 233.206 905.794 205 871 205V205Z" fill="#0DD988"/>
<path d="M986.76 235.493C984.348 234.8 982.59 233.95 981.486 232.944C980.393 231.929 979.846 230.679 979.846 229.194C979.846 227.515 980.515 226.128 981.853 225.034C983.2 223.931 984.948 223.379 987.097 223.379C988.562 223.379 989.865 223.662 991.008 224.229C992.16 224.795 993.049 225.576 993.674 226.572C994.309 227.568 994.626 228.657 994.626 229.839H991.799C991.799 228.55 991.389 227.539 990.568 226.807C989.748 226.064 988.591 225.693 987.097 225.693C985.71 225.693 984.626 226.001 983.845 226.616C983.073 227.222 982.688 228.066 982.688 229.15C982.688 230.02 983.054 230.757 983.786 231.362C984.528 231.958 985.783 232.505 987.551 233.003C989.328 233.501 990.715 234.053 991.711 234.658C992.717 235.254 993.459 235.952 993.938 236.753C994.426 237.554 994.67 238.496 994.67 239.58C994.67 241.309 993.996 242.695 992.648 243.74C991.301 244.775 989.499 245.293 987.243 245.293C985.778 245.293 984.411 245.015 983.142 244.458C981.872 243.892 980.891 243.12 980.197 242.144C979.514 241.167 979.172 240.059 979.172 238.818H981.999C981.999 240.107 982.473 241.128 983.42 241.88C984.377 242.622 985.651 242.993 987.243 242.993C988.728 242.993 989.865 242.69 990.656 242.085C991.447 241.479 991.843 240.654 991.843 239.609C991.843 238.564 991.477 237.759 990.744 237.192C990.012 236.616 988.684 236.05 986.76 235.493ZM1007.65 243.433C1006.6 244.673 1005.05 245.293 1003.01 245.293C1001.32 245.293 1000.03 244.805 999.142 243.828C998.263 242.842 997.819 241.387 997.809 239.463V229.15H1000.52V239.39C1000.52 241.792 1001.5 242.993 1003.45 242.993C1005.52 242.993 1006.9 242.222 1007.58 240.679V229.15H1010.29V245H1007.71L1007.65 243.433ZM1020.78 243.081C1021.75 243.081 1022.59 242.788 1023.32 242.202C1024.04 241.616 1024.44 240.884 1024.52 240.005H1027.08C1027.03 240.913 1026.72 241.777 1026.14 242.598C1025.57 243.418 1024.8 244.072 1023.83 244.561C1022.87 245.049 1021.86 245.293 1020.78 245.293C1018.62 245.293 1016.91 244.575 1015.63 243.14C1014.36 241.694 1013.72 239.722 1013.72 237.222V236.768C1013.72 235.225 1014 233.853 1014.57 232.651C1015.14 231.45 1015.95 230.518 1017 229.854C1018.07 229.189 1019.32 228.857 1020.77 228.857C1022.54 228.857 1024.02 229.39 1025.19 230.454C1026.37 231.519 1027 232.9 1027.08 234.6H1024.52C1024.44 233.574 1024.05 232.734 1023.35 232.08C1022.65 231.416 1021.79 231.084 1020.77 231.084C1019.39 231.084 1018.32 231.582 1017.56 232.578C1016.81 233.564 1016.43 234.995 1016.43 236.87V237.383C1016.43 239.209 1016.81 240.615 1017.56 241.602C1018.31 242.588 1019.39 243.081 1020.78 243.081ZM1036.49 243.081C1037.46 243.081 1038.3 242.788 1039.02 242.202C1039.75 241.616 1040.15 240.884 1040.23 240.005H1042.79C1042.74 240.913 1042.43 241.777 1041.85 242.598C1041.27 243.418 1040.5 244.072 1039.54 244.561C1038.58 245.049 1037.56 245.293 1036.49 245.293C1034.33 245.293 1032.61 244.575 1031.33 243.14C1030.06 241.694 1029.43 239.722 1029.43 237.222V236.768C1029.43 235.225 1029.71 233.853 1030.28 232.651C1030.85 231.45 1031.66 230.518 1032.71 229.854C1033.77 229.189 1035.03 228.857 1036.48 228.857C1038.25 228.857 1039.73 229.39 1040.9 230.454C1042.08 231.519 1042.71 232.9 1042.79 234.6H1040.23C1040.15 233.574 1039.76 232.734 1039.05 232.08C1038.36 231.416 1037.5 231.084 1036.48 231.084C1035.1 231.084 1034.03 231.582 1033.27 232.578C1032.52 233.564 1032.14 234.995 1032.14 236.87V237.383C1032.14 239.209 1032.52 240.615 1033.27 241.602C1034.02 242.588 1035.09 243.081 1036.49 243.081ZM1052.42 245.293C1050.27 245.293 1048.52 244.59 1047.17 243.184C1045.83 241.768 1045.15 239.878 1045.15 237.515V237.017C1045.15 235.444 1045.45 234.043 1046.04 232.812C1046.65 231.572 1047.49 230.605 1048.56 229.912C1049.65 229.209 1050.82 228.857 1052.08 228.857C1054.14 228.857 1055.74 229.536 1056.88 230.894C1058.03 232.251 1058.6 234.194 1058.6 236.724V237.852H1047.86C1047.9 239.414 1048.35 240.679 1049.22 241.646C1050.1 242.603 1051.22 243.081 1052.56 243.081C1053.52 243.081 1054.33 242.886 1055 242.495C1055.66 242.104 1056.24 241.587 1056.74 240.942L1058.39 242.231C1057.07 244.272 1055.07 245.293 1052.42 245.293ZM1052.08 231.084C1050.99 231.084 1050.07 231.484 1049.33 232.285C1048.58 233.076 1048.13 234.189 1047.95 235.625H1055.89V235.42C1055.81 234.043 1055.44 232.979 1054.78 232.227C1054.11 231.465 1053.21 231.084 1052.08 231.084ZM1070.98 240.796C1070.98 240.063 1070.7 239.497 1070.15 239.097C1069.6 238.687 1068.64 238.335 1067.26 238.042C1065.89 237.749 1064.8 237.397 1063.99 236.987C1063.19 236.577 1062.6 236.089 1062.21 235.522C1061.83 234.956 1061.64 234.282 1061.64 233.501C1061.64 232.202 1062.18 231.104 1063.28 230.205C1064.38 229.307 1065.79 228.857 1067.49 228.857C1069.29 228.857 1070.75 229.321 1071.86 230.249C1072.98 231.177 1073.54 232.363 1073.54 233.809H1070.82C1070.82 233.066 1070.5 232.427 1069.87 231.89C1069.24 231.353 1068.45 231.084 1067.49 231.084C1066.51 231.084 1065.74 231.299 1065.18 231.729C1064.62 232.158 1064.35 232.72 1064.35 233.413C1064.35 234.067 1064.6 234.561 1065.12 234.893C1065.64 235.225 1066.57 235.542 1067.92 235.845C1069.28 236.147 1070.38 236.509 1071.22 236.929C1072.06 237.349 1072.68 237.856 1073.08 238.452C1073.49 239.038 1073.69 239.756 1073.69 240.605C1073.69 242.021 1073.12 243.159 1071.99 244.019C1070.86 244.868 1069.39 245.293 1067.58 245.293C1066.31 245.293 1065.19 245.068 1064.21 244.619C1063.24 244.17 1062.47 243.545 1061.91 242.744C1061.37 241.934 1061.09 241.06 1061.09 240.122H1063.8C1063.85 241.03 1064.21 241.753 1064.89 242.29C1065.57 242.817 1066.47 243.081 1067.58 243.081C1068.61 243.081 1069.43 242.876 1070.04 242.466C1070.67 242.046 1070.98 241.489 1070.98 240.796ZM1086.45 240.796C1086.45 240.063 1086.18 239.497 1085.62 239.097C1085.07 238.687 1084.11 238.335 1082.73 238.042C1081.37 237.749 1080.28 237.397 1079.47 236.987C1078.67 236.577 1078.07 236.089 1077.68 235.522C1077.3 234.956 1077.11 234.282 1077.11 233.501C1077.11 232.202 1077.66 231.104 1078.75 230.205C1079.85 229.307 1081.26 228.857 1082.97 228.857C1084.76 228.857 1086.22 229.321 1087.33 230.249C1088.46 231.177 1089.02 232.363 1089.02 233.809H1086.29C1086.29 233.066 1085.98 232.427 1085.34 231.89C1084.72 231.353 1083.92 231.084 1082.97 231.084C1081.98 231.084 1081.21 231.299 1080.65 231.729C1080.1 232.158 1079.82 232.72 1079.82 233.413C1079.82 234.067 1080.08 234.561 1080.59 234.893C1081.11 235.225 1082.04 235.542 1083.39 235.845C1084.75 236.147 1085.85 236.509 1086.69 236.929C1087.53 237.349 1088.15 237.856 1088.55 238.452C1088.96 239.038 1089.16 239.756 1089.16 240.605C1089.16 242.021 1088.6 243.159 1087.46 244.019C1086.33 244.868 1084.86 245.293 1083.06 245.293C1081.79 245.293 1080.66 245.068 1079.69 244.619C1078.71 244.17 1077.94 243.545 1077.39 242.744C1076.84 241.934 1076.57 241.06 1076.57 240.122H1079.28C1079.33 241.03 1079.69 241.753 1080.36 242.29C1081.04 242.817 1081.94 243.081 1083.06 243.081C1084.08 243.081 1084.9 242.876 1085.52 242.466C1086.14 242.046 1086.45 241.489 1086.45 240.796Z" fill="#1B314D"/>
<path d="M1435.12 89.3945H1432.48L1431.5 95H1428.99L1429.98 89.3945H1426.88V87.043H1430.39L1431.07 83.1602H1427.9V80.7812H1431.5L1432.49 75.0938H1434.98L1433.98 80.7812H1436.64L1437.63 75.0938H1440.14L1439.14 80.7812H1442.13V83.1602H1438.71L1438.03 87.043H1441.09V89.3945H1437.62L1436.64 95H1434.13L1435.12 89.3945ZM1432.89 87.043H1435.53L1436.21 83.1602H1433.56L1432.89 87.043ZM1448.06 83.2969H1450.16C1451.17 83.2969 1451.91 83.0462 1452.39 82.5449C1452.87 82.0436 1453.12 81.3783 1453.12 80.5488C1453.12 79.7467 1452.87 79.1224 1452.39 78.6758C1451.92 78.2292 1451.26 78.0059 1450.42 78.0059C1449.67 78.0059 1449.03 78.2155 1448.52 78.6348C1448.01 79.0449 1447.76 79.5827 1447.76 80.248H1443.81C1443.81 79.209 1444.08 78.2793 1444.64 77.459C1445.2 76.6296 1445.99 75.9824 1446.99 75.5176C1448 75.0527 1449.11 74.8203 1450.33 74.8203C1452.43 74.8203 1454.08 75.3262 1455.28 76.3379C1456.47 77.3405 1457.07 78.7259 1457.07 80.4941C1457.07 81.4056 1456.79 82.2441 1456.23 83.0098C1455.68 83.7754 1454.95 84.3633 1454.05 84.7734C1455.17 85.1745 1456 85.776 1456.55 86.5781C1457.1 87.3802 1457.38 88.3281 1457.38 89.4219C1457.38 91.1901 1456.73 92.6074 1455.44 93.6738C1454.15 94.7402 1452.45 95.2734 1450.33 95.2734C1448.34 95.2734 1446.71 94.7493 1445.45 93.7012C1444.19 92.653 1443.56 91.2676 1443.56 89.5449H1447.51C1447.51 90.2923 1447.79 90.903 1448.34 91.377C1448.91 91.8509 1449.6 92.0879 1450.42 92.0879C1451.36 92.0879 1452.09 91.8418 1452.62 91.3496C1453.16 90.8483 1453.43 90.1875 1453.43 89.3672C1453.43 87.3802 1452.34 86.3867 1450.15 86.3867H1448.06V83.2969ZM1469.36 87.043C1468.33 88.0547 1467.13 88.5605 1465.75 88.5605C1463.99 88.5605 1462.59 87.959 1461.53 86.7559C1460.47 85.5436 1459.94 83.9121 1459.94 81.8613C1459.94 80.5579 1460.22 79.3639 1460.79 78.2793C1461.36 77.1855 1462.16 76.3379 1463.18 75.7363C1464.2 75.1257 1465.35 74.8203 1466.63 74.8203C1467.94 74.8203 1469.11 75.1484 1470.13 75.8047C1471.15 76.4609 1471.94 77.4043 1472.51 78.6348C1473.07 79.8652 1473.36 81.2734 1473.37 82.8594V84.3223C1473.37 87.64 1472.54 90.2467 1470.89 92.1426C1469.24 94.0384 1466.91 95.0501 1463.88 95.1777L1462.91 95.1914V91.8965L1463.78 91.8828C1467.22 91.7279 1469.08 90.1146 1469.36 87.043ZM1466.72 85.5391C1467.36 85.5391 1467.91 85.375 1468.36 85.0469C1468.83 84.7188 1469.18 84.3223 1469.42 83.8574V82.2305C1469.42 80.8906 1469.16 79.8516 1468.65 79.1133C1468.14 78.375 1467.46 78.0059 1466.6 78.0059C1465.81 78.0059 1465.16 78.3704 1464.65 79.0996C1464.14 79.8197 1463.88 80.7266 1463.88 81.8203C1463.88 82.9049 1464.13 83.7982 1464.62 84.5C1465.12 85.1927 1465.82 85.5391 1466.72 85.5391ZM1492.25 88.3691C1492.1 90.5111 1491.31 92.1973 1489.87 93.4277C1488.45 94.6582 1486.58 95.2734 1484.24 95.2734C1481.69 95.2734 1479.68 94.4167 1478.21 92.7031C1476.75 90.9805 1476.02 88.6198 1476.02 85.6211V84.4043C1476.02 82.4902 1476.36 80.804 1477.04 79.3457C1477.71 77.8874 1478.67 76.7708 1479.92 75.9961C1481.18 75.2122 1482.64 74.8203 1484.3 74.8203C1486.59 74.8203 1488.44 75.4355 1489.85 76.666C1491.25 77.8965 1492.06 79.6237 1492.28 81.8477H1488.18C1488.08 80.5625 1487.72 79.6328 1487.1 79.0586C1486.49 78.4753 1485.55 78.1836 1484.3 78.1836C1482.93 78.1836 1481.9 78.6758 1481.22 79.6602C1480.55 80.6354 1480.2 82.153 1480.18 84.2129V85.7168C1480.18 87.8678 1480.5 89.4401 1481.15 90.4336C1481.81 91.4271 1482.84 91.9238 1484.24 91.9238C1485.51 91.9238 1486.45 91.6367 1487.07 91.0625C1487.7 90.4792 1488.06 89.5814 1488.15 88.3691H1492.25ZM1508.17 95H1494.53V92.293L1500.97 85.4297C1501.85 84.4635 1502.5 83.6204 1502.92 82.9004C1503.35 82.1803 1503.56 81.4967 1503.56 80.8496C1503.56 79.9655 1503.34 79.2728 1502.89 78.7715C1502.45 78.2611 1501.81 78.0059 1500.98 78.0059C1500.09 78.0059 1499.38 78.3158 1498.86 78.9355C1498.35 79.5462 1498.1 80.3529 1498.1 81.3555H1494.13C1494.13 80.1432 1494.42 79.0358 1494.99 78.0332C1495.58 77.0306 1496.4 76.2467 1497.45 75.6816C1498.51 75.1074 1499.71 74.8203 1501.05 74.8203C1503.1 74.8203 1504.69 75.3125 1505.82 76.2969C1506.96 77.2812 1507.53 78.6712 1507.53 80.4668C1507.53 81.4512 1507.27 82.4538 1506.76 83.4746C1506.25 84.4954 1505.38 85.6849 1504.14 87.043L1499.61 91.8145H1508.17V95ZM1511.03 95V75.0938H1517.16C1518.91 75.0938 1520.47 75.4902 1521.85 76.2832C1523.23 77.0671 1524.31 78.1882 1525.09 79.6465C1525.86 81.0957 1526.25 82.7454 1526.25 84.5957V85.5117C1526.25 87.362 1525.87 89.0072 1525.1 90.4473C1524.35 91.8874 1523.27 93.0039 1521.89 93.7969C1520.5 94.5898 1518.94 94.9909 1517.2 95H1511.03ZM1515.14 78.416V91.7051H1517.12C1518.72 91.7051 1519.95 91.181 1520.8 90.1328C1521.64 89.0846 1522.08 87.5853 1522.09 85.6348V84.582C1522.09 82.5586 1521.67 81.0273 1520.84 79.9883C1520 78.9401 1518.77 78.416 1517.16 78.416H1515.14ZM1532.84 83.2969H1534.95C1535.95 83.2969 1536.7 83.0462 1537.18 82.5449C1537.66 82.0436 1537.9 81.3783 1537.9 80.5488C1537.9 79.7467 1537.66 79.1224 1537.18 78.6758C1536.7 78.2292 1536.05 78.0059 1535.21 78.0059C1534.45 78.0059 1533.82 78.2155 1533.31 78.6348C1532.8 79.0449 1532.54 79.5827 1532.54 80.248H1528.59C1528.59 79.209 1528.87 78.2793 1529.43 77.459C1529.99 76.6296 1530.78 75.9824 1531.78 75.5176C1532.79 75.0527 1533.9 74.8203 1535.11 74.8203C1537.22 74.8203 1538.87 75.3262 1540.06 76.3379C1541.26 77.3405 1541.85 78.7259 1541.85 80.4941C1541.85 81.4056 1541.58 82.2441 1541.02 83.0098C1540.46 83.7754 1539.74 84.3633 1538.83 84.7734C1539.95 85.1745 1540.79 85.776 1541.33 86.5781C1541.89 87.3802 1542.17 88.3281 1542.17 89.4219C1542.17 91.1901 1541.52 92.6074 1540.23 93.6738C1538.94 94.7402 1537.24 95.2734 1535.11 95.2734C1533.13 95.2734 1531.5 94.7493 1530.23 93.7012C1528.98 92.653 1528.35 91.2676 1528.35 89.5449H1532.3C1532.3 90.2923 1532.58 90.903 1533.13 91.377C1533.7 91.8509 1534.39 92.0879 1535.21 92.0879C1536.15 92.0879 1536.88 91.8418 1537.41 91.3496C1537.95 90.8483 1538.22 90.1875 1538.22 89.3672C1538.22 87.3802 1537.12 86.3867 1534.94 86.3867H1532.84V83.2969Z" fill="#1B314D"/>
<g filter="url(#filter6_d)">
<path fill-rule="evenodd" clip-rule="evenodd" d="M1319 10C1284.21 10 1256 38.2061 1256 73V73C1256 107.794 1284.21 136 1319 136V136C1353.79 136 1382 107.794 1382 73V73C1382 38.2061 1353.79 10 1319 10V10Z" fill="white"/>
</g>
<path fill-rule="evenodd" clip-rule="evenodd" d="M1319 10C1284.21 10 1256 38.2061 1256 73V73C1256 107.794 1284.21 136 1319 136V136C1353.79 136 1382 107.794 1382 73V73C1382 38.2061 1353.79 10 1319 10V10Z" fill="#39C2D3"/>
<path d="M1434.76 40.4932C1432.35 39.7998 1430.59 38.9502 1429.49 37.9443C1428.39 36.9287 1427.85 35.6787 1427.85 34.1943C1427.85 32.5146 1428.51 31.1279 1429.85 30.0342C1431.2 28.9307 1432.95 28.3789 1435.1 28.3789C1436.56 28.3789 1437.87 28.6621 1439.01 29.2285C1440.16 29.7949 1441.05 30.5762 1441.67 31.5723C1442.31 32.5684 1442.63 33.6572 1442.63 34.8389H1439.8C1439.8 33.5498 1439.39 32.5391 1438.57 31.8066C1437.75 31.0645 1436.59 30.6934 1435.1 30.6934C1433.71 30.6934 1432.63 31.001 1431.84 31.6162C1431.07 32.2217 1430.69 33.0664 1430.69 34.1504C1430.69 35.0195 1431.05 35.7568 1431.79 36.3623C1432.53 36.958 1433.78 37.5049 1435.55 38.0029C1437.33 38.501 1438.71 39.0527 1439.71 39.6582C1440.72 40.2539 1441.46 40.9521 1441.94 41.7529C1442.43 42.5537 1442.67 43.4961 1442.67 44.5801C1442.67 46.3086 1442 47.6953 1440.65 48.7402C1439.3 49.7754 1437.5 50.293 1435.24 50.293C1433.78 50.293 1432.41 50.0146 1431.14 49.458C1429.87 48.8916 1428.89 48.1201 1428.2 47.1436C1427.51 46.167 1427.17 45.0586 1427.17 43.8184H1430C1430 45.1074 1430.47 46.1279 1431.42 46.8799C1432.38 47.6221 1433.65 47.9932 1435.24 47.9932C1436.73 47.9932 1437.87 47.6904 1438.66 47.085C1439.45 46.4795 1439.84 45.6543 1439.84 44.6094C1439.84 43.5645 1439.48 42.7588 1438.74 42.1924C1438.01 41.6162 1436.68 41.0498 1434.76 40.4932ZM1452.23 48.0811C1453.19 48.0811 1454.04 47.7881 1454.76 47.2021C1455.48 46.6162 1455.88 45.8838 1455.96 45.0049H1458.52C1458.48 45.9131 1458.16 46.7773 1457.59 47.5977C1457.01 48.418 1456.24 49.0723 1455.27 49.5605C1454.31 50.0488 1453.3 50.293 1452.23 50.293C1450.07 50.293 1448.35 49.5752 1447.07 48.1396C1445.8 46.6943 1445.16 44.7217 1445.16 42.2217V41.7676C1445.16 40.2246 1445.45 38.8525 1446.01 37.6514C1446.58 36.4502 1447.39 35.5176 1448.45 34.8535C1449.51 34.1895 1450.77 33.8574 1452.21 33.8574C1453.99 33.8574 1455.46 34.3896 1456.63 35.4541C1457.82 36.5186 1458.45 37.9004 1458.52 39.5996H1455.96C1455.88 38.5742 1455.49 37.7344 1454.79 37.0801C1454.1 36.416 1453.24 36.084 1452.21 36.084C1450.83 36.084 1449.76 36.582 1449 37.5781C1448.25 38.5645 1447.87 39.9951 1447.87 41.8701V42.3828C1447.87 44.209 1448.25 45.6152 1449 46.6016C1449.75 47.5879 1450.83 48.0811 1452.23 48.0811ZM1460.86 41.9287C1460.86 40.376 1461.16 38.9795 1461.77 37.7393C1462.38 36.499 1463.23 35.542 1464.31 34.8682C1465.41 34.1943 1466.65 33.8574 1468.05 33.8574C1470.21 33.8574 1471.95 34.6045 1473.28 36.0986C1474.62 37.5928 1475.29 39.5801 1475.29 42.0605V42.251C1475.29 43.7939 1474.99 45.1807 1474.39 46.4111C1473.81 47.6318 1472.96 48.584 1471.86 49.2676C1470.76 49.9512 1469.5 50.293 1468.08 50.293C1465.93 50.293 1464.19 49.5459 1462.85 48.0518C1461.52 46.5576 1460.86 44.5801 1460.86 42.1191V41.9287ZM1463.58 42.251C1463.58 44.0088 1463.99 45.4199 1464.8 46.4844C1465.62 47.5488 1466.71 48.0811 1468.08 48.0811C1469.46 48.0811 1470.55 47.5439 1471.36 46.4697C1472.17 45.3857 1472.58 43.8721 1472.58 41.9287C1472.58 40.1904 1472.16 38.7842 1471.33 37.71C1470.51 36.626 1469.42 36.084 1468.05 36.084C1466.71 36.084 1465.63 36.6162 1464.81 37.6807C1463.99 38.7451 1463.58 40.2686 1463.58 42.251ZM1477.97 41.9287C1477.97 40.376 1478.27 38.9795 1478.88 37.7393C1479.49 36.499 1480.34 35.542 1481.43 34.8682C1482.52 34.1943 1483.77 33.8574 1485.16 33.8574C1487.32 33.8574 1489.06 34.6045 1490.39 36.0986C1491.73 37.5928 1492.4 39.5801 1492.4 42.0605V42.251C1492.4 43.7939 1492.1 45.1807 1491.51 46.4111C1490.92 47.6318 1490.08 48.584 1488.97 49.2676C1487.88 49.9512 1486.62 50.293 1485.19 50.293C1483.04 50.293 1481.3 49.5459 1479.96 48.0518C1478.64 46.5576 1477.97 44.5801 1477.97 42.1191V41.9287ZM1480.7 42.251C1480.7 44.0088 1481.1 45.4199 1481.91 46.4844C1482.73 47.5488 1483.83 48.0811 1485.19 48.0811C1486.57 48.0811 1487.66 47.5439 1488.47 46.4697C1489.28 45.3857 1489.69 43.8721 1489.69 41.9287C1489.69 40.1904 1489.27 38.7842 1488.44 37.71C1487.62 36.626 1486.53 36.084 1485.16 36.084C1483.83 36.084 1482.75 36.6162 1481.93 37.6807C1481.11 38.7451 1480.7 40.2686 1480.7 42.251ZM1499.48 30.3125V34.1504H1502.44V36.2451H1499.48V46.0742C1499.48 46.709 1499.61 47.1875 1499.88 47.5098C1500.14 47.8223 1500.59 47.9785 1501.22 47.9785C1501.54 47.9785 1501.96 47.9199 1502.51 47.8027V50C1501.8 50.1953 1501.11 50.293 1500.43 50.293C1499.22 50.293 1498.31 49.9268 1497.69 49.1943C1497.08 48.4619 1496.77 47.4219 1496.77 46.0742V36.2451H1493.88V34.1504H1496.77V30.3125H1499.48ZM1512.2 50.293C1510.05 50.293 1508.3 49.5898 1506.95 48.1836C1505.61 46.7676 1504.93 44.8779 1504.93 42.5146V42.0166C1504.93 40.4443 1505.23 39.043 1505.83 37.8125C1506.43 36.5723 1507.27 35.6055 1508.35 34.9121C1509.43 34.209 1510.6 33.8574 1511.86 33.8574C1513.92 33.8574 1515.52 34.5361 1516.67 35.8936C1517.81 37.251 1518.38 39.1943 1518.38 41.7236V42.8516H1507.64C1507.68 44.4141 1508.14 45.6787 1509.01 46.6455C1509.88 47.6025 1511 48.0811 1512.35 48.0811C1513.3 48.0811 1514.11 47.8857 1514.78 47.4951C1515.44 47.1045 1516.02 46.5869 1516.52 45.9424L1518.18 47.2314C1516.85 49.2725 1514.86 50.293 1512.2 50.293ZM1511.86 36.084C1510.77 36.084 1509.85 36.4844 1509.11 37.2852C1508.37 38.0762 1507.91 39.1895 1507.73 40.625H1515.67V40.4199C1515.59 39.043 1515.22 37.9785 1514.56 37.2266C1513.89 36.4648 1512.99 36.084 1511.86 36.084ZM1529.2 36.582C1528.79 36.5137 1528.34 36.4795 1527.86 36.4795C1526.08 36.4795 1524.88 37.2363 1524.24 38.75V50H1521.53V34.1504H1524.17L1524.21 35.9814C1525.1 34.5654 1526.36 33.8574 1527.99 33.8574C1528.52 33.8574 1528.92 33.9258 1529.2 34.0625V36.582Z" fill="#1B314D"/>
</g>
<defs>
<filter id="filter0_d" x="-6" y="3" width="154" height="154" filterUnits="userSpaceOnUse" color-interpolation-filters="sRGB">
<feFlood flood-opacity="0" result="BackgroundImageFix"/>
<feColorMatrix in="SourceAlpha" type="matrix" values="0 0 0 0 0 0 0 0 0 0 0 0 0 0 0 0 0 0 127 0"/>
<feOffset dy="8"/>
<feGaussianBlur stdDeviation="7"/>
<feColorMatrix type="matrix" values="0 0 0 0 0.0235294 0 0 0 0 0.109804 0 0 0 0 0.247059 0 0 0 0.3 0"/>
<feBlend mode="normal" in2="BackgroundImageFix" result="effect1_dropShadow"/>
<feBlend mode="normal" in="SourceGraphic" in2="effect1_dropShadow" result="shape"/>
</filter>
<filter id="filter1_d" x="396" y="4" width="154" height="154" filterUnits="userSpaceOnUse" color-interpolation-filters="sRGB">
<feFlood flood-opacity="0" result="BackgroundImageFix"/>
<feColorMatrix in="SourceAlpha" type="matrix" values="0 0 0 0 0 0 0 0 0 0 0 0 0 0 0 0 0 0 127 0"/>
<feOffset dy="8"/>
<feGaussianBlur stdDeviation="7"/>
<feColorMatrix type="matrix" values="0 0 0 0 0.0235294 0 0 0 0 0.109804 0 0 0 0 0.247059 0 0 0 0.3 0"/>
<feBlend mode="normal" in2="BackgroundImageFix" result="effect1_dropShadow"/>
<feBlend mode="normal" in="SourceGraphic" in2="effect1_dropShadow" result="shape"/>
</filter>
<filter id="filter2_d" x="794" y="4" width="154" height="154" filterUnits="userSpaceOnUse" color-interpolation-filters="sRGB">
<feFlood flood-opacity="0" result="BackgroundImageFix"/>
<feColorMatrix in="SourceAlpha" type="matrix" values="0 0 0 0 0 0 0 0 0 0 0 0 0 0 0 0 0 0 127 0"/>
<feOffset dy="8"/>
<feGaussianBlur stdDeviation="7"/>
<feColorMatrix type="matrix" values="0 0 0 0 0.0235294 0 0 0 0 0.109804 0 0 0 0 0.247059 0 0 0 0.3 0"/>
<feBlend mode="normal" in2="BackgroundImageFix" result="effect1_dropShadow"/>
<feBlend mode="normal" in="SourceGraphic" in2="effect1_dropShadow" result="shape"/>
</filter>
<filter id="filter3_d" x="-6" y="198" width="154" height="154" filterUnits="userSpaceOnUse" color-interpolation-filters="sRGB">
<feFlood flood-opacity="0" result="BackgroundImageFix"/>
<feColorMatrix in="SourceAlpha" type="matrix" values="0 0 0 0 0 0 0 0 0 0 0 0 0 0 0 0 0 0 127 0"/>
<feOffset dy="8"/>
<feGaussianBlur stdDeviation="7"/>
<feColorMatrix type="matrix" values="0 0 0 0 0.0235294 0 0 0 0 0.109804 0 0 0 0 0.247059 0 0 0 0.3 0"/>
<feBlend mode="normal" in2="BackgroundImageFix" result="effect1_dropShadow"/>
<feBlend mode="normal" in="SourceGraphic" in2="effect1_dropShadow" result="shape"/>
</filter>
<filter id="filter4_d" x="396" y="199" width="154" height="154" filterUnits="userSpaceOnUse" color-interpolation-filters="sRGB">
<feFlood flood-opacity="0" result="BackgroundImageFix"/>
<feColorMatrix in="SourceAlpha" type="matrix" values="0 0 0 0 0 0 0 0 0 0 0 0 0 0 0 0 0 0 127 0"/>
<feOffset dy="8"/>
<feGaussianBlur stdDeviation="7"/>
<feColorMatrix type="matrix" values="0 0 0 0 0.0235294 0 0 0 0 0.109804 0 0 0 0 0.247059 0 0 0 0.3 0"/>
<feBlend mode="normal" in2="BackgroundImageFix" result="effect1_dropShadow"/>
<feBlend mode="normal" in="SourceGraphic" in2="effect1_dropShadow" result="shape"/>
</filter>
<filter id="filter5_d" x="794" y="199" width="154" height="154" filterUnits="userSpaceOnUse" color-interpolation-filters="sRGB">
<feFlood flood-opacity="0" result="BackgroundImageFix"/>
<feColorMatrix in="SourceAlpha" type="matrix" values="0 0 0 0 0 0 0 0 0 0 0 0 0 0 0 0 0 0 127 0"/>
<feOffset dy="8"/>
<feGaussianBlur stdDeviation="7"/>
<feColorMatrix type="matrix" values="0 0 0 0 0.0235294 0 0 0 0 0.109804 0 0 0 0 0.247059 0 0 0 0.3 0"/>
<feBlend mode="normal" in2="BackgroundImageFix" result="effect1_dropShadow"/>
<feBlend mode="normal" in="SourceGraphic" in2="effect1_dropShadow" result="shape"/>
</filter>
<filter id="filter6_d" x="1242" y="4" width="154" height="154" filterUnits="userSpaceOnUse" color-interpolation-filters="sRGB">
<feFlood flood-opacity="0" result="BackgroundImageFix"/>
<feColorMatrix in="SourceAlpha" type="matrix" values="0 0 0 0 0 0 0 0 0 0 0 0 0 0 0 0 0 0 127 0"/>
<feOffset dy="8"/>
<feGaussianBlur stdDeviation="7"/>
<feColorMatrix type="matrix" values="0 0 0 0 0.0235294 0 0 0 0 0.109804 0 0 0 0 0.247059 0 0 0 0.3 0"/>
<feBlend mode="normal" in2="BackgroundImageFix" result="effect1_dropShadow"/>
<feBlend mode="normal" in="SourceGraphic" in2="effect1_dropShadow" result="shape"/>
</filter>
<clipPath id="clip0">
<rect width="1554" height="354" fill="white"/>
</clipPath>
</defs>
</svg>
