<svg width="153" height="437" viewBox="0 0 153 437" fill="none" xmlns="http://www.w3.org/2000/svg">
<g clip-path="url(#clip0)">
<path d="M126.341 401.979C126.341 388.925 119.221 379.838 110.279 375.541L124.188 375.541L124.188 342.99L-4.15301e-06 342.99L-2.73015e-06 375.541L49.5097 375.541C40.7338 380.333 35.2695 388.43 35.2695 401.979C35.2695 421.642 50.3377 438 80.474 438L81.7987 438C112.266 438 126.341 421.477 126.341 401.979ZM101.503 389.917C101.503 399.5 94.7143 404.953 81.302 404.953L79.9773 404.953C66.0682 404.953 59.4448 399.666 59.4448 389.752C59.4448 380.003 66.7305 374.715 79.8117 374.715L81.1364 374.715C94.5487 374.715 101.503 380.168 101.503 389.917Z" fill="#0C2F59"/>
<path d="M124.188 333.815L124.188 298.95L104.484 293.663L104.484 256.32L124.188 250.867L124.188 211.211L5.79545 248.223L5.79545 296.637L124.188 333.815ZM36.0974 274.826L78.9838 263.26L78.9838 286.558L36.0974 274.826Z" fill="#0C2F59"/>
<path d="M153 201.996L153 169.445L111.769 169.445C120.214 165.149 126.341 155.896 126.341 143.173C126.341 123.51 111.935 106.821 81.6331 106.821L80.3084 106.821C50.0065 106.821 35.2695 123.345 35.2695 143.008C35.2695 156.061 42.0584 164.653 50.1721 169.445L37.5877 169.445L37.5877 201.996L153 201.996ZM101.503 155.07C101.503 164.984 94.7143 170.271 81.302 170.271L79.9773 170.271C66.7305 170.271 59.4448 164.819 59.4448 155.235C59.4448 145.486 66.0682 139.868 79.9773 139.868L81.302 139.868C94.5487 139.868 101.503 145.321 101.503 155.07Z" fill="#0C2F59"/>
<path d="M153 95.175L153 62.6238L111.769 62.6238C120.214 58.3277 126.341 49.0746 126.341 36.3515C126.341 16.6887 111.935 1.22733e-05 81.6331 1.35978e-05L80.3084 1.36557e-05C50.0065 1.49803e-05 35.2695 16.5234 35.2695 36.1863C35.2695 49.2398 42.0584 57.832 50.1721 62.6238L37.5877 62.6238L37.5877 95.175L153 95.175ZM101.503 48.2484C101.503 58.1625 94.7143 63.45 81.3019 63.45L79.9773 63.45C66.7305 63.45 59.4448 57.9973 59.4448 48.4137C59.4448 38.6648 66.0682 33.0469 79.9773 33.0469L81.3019 33.0469C94.5487 33.0469 101.503 38.4996 101.503 48.2484Z" fill="#0C2F59"/>
</g>
<defs>
<clipPath id="clip0">
<rect width="153" height="437" fill="white"/>
</clipPath>
</defs>
</svg>
