<?xml version="1.0" encoding="utf-8"?>
<!-- Generator: Adobe Illustrator 15.0.0, SVG Export Plug-In . SVG Version: 6.00 Build 0)  -->
<!DOCTYPE svg PUBLIC "-//W3C//DTD SVG 1.1//EN" "http://www.w3.org/Graphics/SVG/1.1/DTD/svg11.dtd">
<svg version="1.1" id="Layer_1" xmlns="http://www.w3.org/2000/svg" xmlns:xlink="http://www.w3.org/1999/xlink" x="0px" y="0px"
	 width="200px" height="200px" viewBox="0 0 200 200" enable-background="new 0 0 200 200" xml:space="preserve">
<g>
	<defs>
		<path id="SVGID_1_" d="M26.307,99.746c0-41.055,33.281-74.336,74.337-74.336c41.054,0,74.336,33.281,74.336,74.336
			c0,41.055-33.282,74.338-74.336,74.338C59.588,174.084,26.307,140.801,26.307,99.746 M100.644,1.935
			c-54.02,0-97.812,43.791-97.812,97.811c0,54.02,43.792,97.812,97.812,97.812c54.019,0,97.811-43.792,97.811-97.812
			C198.455,45.726,154.663,1.935,100.644,1.935z"/>
	</defs>
	<clipPath id="SVGID_2_">
		<use xlink:href="#SVGID_1_"  overflow="visible"/>
	</clipPath>
	
		<radialGradient id="SVGID_3_" cx="1.1768" cy="200.8584" r="0.5177" gradientTransform="matrix(470.433 727.1786 727.1786 -470.433 -146586.5156 93619.6875)" gradientUnits="userSpaceOnUse">
		<stop  offset="0" style="stop-color:#68B548"/>
		<stop  offset="1" style="stop-color:#AECB3B"/>
	</radialGradient>
	<polygon clip-path="url(#SVGID_2_)" fill="url(#SVGID_3_)" points="140.738,-87.281 287.67,139.842 60.548,286.773 -86.384,59.651 
			"/>
</g>
</svg>
